<svg xmlns="http://www.w3.org/2000/svg" width="36" height="26" viewBox="0 0 36 26">
  <g id="Amex" transform="translate(-783 -536)">
    <rect id="Rectangle_5643" data-name="Rectangle 5643" width="36" height="26" rx="3" transform="translate(783 536)" fill="#26a6d1"/>
    <g id="amex-svgrepo-com" transform="translate(787.155 545.903)">
      <g id="Group_42686" data-name="Group 42686" transform="translate(-1 -0.616)">
        <path id="Path_8763" data-name="Path 8763" d="M8.421,41.677H9.492l1.6,1.595,1.965-1.595,8.1-.272,2.006,1.061,1.576-1.44c.91,0,1.649.266,1.649.595l-1.13,3.214,1.13,2.433c0,.328-.739.594-1.649.594l-1.7-.594-1.52.594-8.112.071-.618-.66-.892.66-1.57-.12-.7-.54L5.7,48.015,4.539,46.861l-1.3.288-1.588.712C.738,47.861,0,47.595,0,47.267l2.766-5.358C0,41.291,6.1,42.44,8.421,41.677Z" transform="translate(0.93 -41.025)" fill="#26a6d1"/>
        <path id="Path_8764" data-name="Path 8764" d="M21.586,113.966l-3.351,7.415h4.011l.5-1.182H23.88l.5,1.182h4.415v-.9l.393.9H31.47l.393-.921v.921h9.183l1.117-1.152,1.045,1.152,4.716.01-3.361-3.7,3.361-3.728H43.281l-1.087,1.13-1.013-1.13H31.192l-.858,1.914-.878-1.914h-4v.872l-.445-.872Zm.776,1.053h1.955l2.223,5.028v-5.028h2.142l1.717,3.605,1.582-3.605h2.131v5.321h-1.3L32.8,116.17l-1.891,4.169h-1.16l-1.9-4.169v4.169H25.184l-.506-1.193H21.946l-.5,1.192H20.012Zm12.936,0h5.273l1.613,1.742,1.665-1.742h1.613l-2.45,2.674,2.45,2.643H43.775l-1.613-1.762-1.673,1.762H35.3v-5.318Zm-11.985.9-.9,2.125h1.8Zm13.287.2v.971h2.877v1.083H36.6v1.06h3.227l1.5-1.562L39.89,116.12H36.6Z" transform="translate(-18.235 -113.965)" fill="#fff"/>
      </g>
    </g>
  </g>
</svg>
