<svg xmlns="http://www.w3.org/2000/svg" xmlns:xlink="http://www.w3.org/1999/xlink" width="42" height="44" viewBox="0 0 42 44">
  <defs>
    <clipPath id="clip-path">
      <rect id="Rectangle_20784" data-name="Rectangle 20784" width="42" height="44" transform="translate(20 527)" fill="#fff" opacity="0"/>
    </clipPath>
    <clipPath id="clip-path-2">
      <rect id="Rectangle_21509" data-name="Rectangle 21509" width="36.39" height="36.39" fill="none"/>
    </clipPath>
  </defs>
  <g id="Biometric" transform="translate(-20 -527)" clip-path="url(#clip-path)">
    <g id="Group_90535" data-name="Group 90535" transform="translate(22.805 530.805)">
      <g id="Group_90534" data-name="Group 90534" clip-path="url(#clip-path-2)">
        <path id="Path_90467" data-name="Path 90467" d="M27.668,22.018v2.03a.857.857,0,0,1-.53.83.838.838,0,0,1-.94-.11.962.962,0,0,1-.35-.83c.01-2.27.01-4.55,0-6.81a7.415,7.415,0,0,0-2.7-5.91,7.159,7.159,0,0,0-7.41-1.33,7.241,7.241,0,0,0-4.9,5.85,7.293,7.293,0,0,0-.12,1.46c-.01,1.27-.01,2.53,0,3.79V24a.917.917,0,0,1-1.37.85.939.939,0,0,1-.42-.55.883.883,0,0,1-.03-.25c-.01-.86,0-1.72,0-2.59v-.81h.01v-1.66c-.01-.77-.01-1.53,0-2.3a9.378,9.378,0,0,1,18.58-1.49,6.974,6.974,0,0,1,.16,1.44C27.668,18.428,27.668,20.228,27.668,22.018Z" fill="#696f8e"/>
        <path id="Path_90468" data-name="Path 90468" d="M22.028,17.048v9.83a.911.911,0,0,1-.75.9.868.868,0,0,1-.99-.53,1.968,1.968,0,0,1-.09-.59V21.7l-.01-4.57a1.886,1.886,0,0,0-1.63-2.02,1.379,1.379,0,0,0-.28-.02,1.854,1.854,0,0,0-1.13.38,1.9,1.9,0,0,0-.75,1.32,2.715,2.715,0,0,0-.01.51v9.34a1.963,1.963,0,0,1-.07.55.892.892,0,0,1-1.01.59.907.907,0,0,1-.75-.85q-.015-.63,0-1.26v-8.69a3.732,3.732,0,0,1,7.32-1.03A4.088,4.088,0,0,1,22.028,17.048Z" fill="#696f8e"/>
        <path id="Path_90469" data-name="Path 90469" d="M7.79,0V2H2.02V7.79H.01V0Z" fill="#696f8e"/>
        <path id="Path_90470" data-name="Path 90470" d="M36.39,0V7.78H34.38V2.02H28.62V0Z" fill="#696f8e"/>
        <path id="Path_90471" data-name="Path 90471" d="M7.78,34.35v2.04H0V28.61H2.02v5.74Z" fill="#696f8e"/>
        <path id="Path_90472" data-name="Path 90472" d="M36.38,28.61v7.77H28.6V34.37h5.77V28.61Z" fill="#696f8e"/>
      </g>
    </g>
  </g>
</svg>
