<svg xmlns="http://www.w3.org/2000/svg" width="36" height="17" viewBox="0 0 36 17">
    <g transform="translate(-20 -519)">
        <rect data-name="Rectangle 3141" width="36" height="17" rx="8.5" transform="translate(20 519)" style="opacity:.09;fill:#a4edd9"/>
        <path data-name="Path 89562" d="M-7.952.069q-.242 0-.523-.012t-.564-.034Q-9.321 0-9.6-.034a4.283 4.283 0 0 1-.5-.092v-7.729a4.283 4.283 0 0 1 .5-.091q.276-.035.558-.057t.558-.035q.276-.011.518-.012a7.66 7.66 0 0 1 1.294.1 3.265 3.265 0 0 1 1.048.35 1.9 1.9 0 0 1 .7.65 1.823 1.823 0 0 1 .253.989 1.761 1.761 0 0 1-.311 1.075 1.867 1.867 0 0 1-.828.627A2.4 2.4 0 0 1-4.7-3.6a1.8 1.8 0 0 1 .414 1.265 2.039 2.039 0 0 1-.88 1.8 5.025 5.025 0 0 1-2.786.604zM-9-3.715v2.806q.127.011.3.023.149.012.351.017t.466.006a6.63 6.63 0 0 0 .937-.063 2.637 2.637 0 0 0 .776-.224 1.361 1.361 0 0 0 .535-.45 1.234 1.234 0 0 0 .2-.725 1.349 1.349 0 0 0-.149-.661 1.11 1.11 0 0 0-.431-.431 2.075 2.075 0 0 0-.673-.23 5.052 5.052 0 0 0-.874-.069zm0-.9h1.173a5.067 5.067 0 0 0 .782-.057 1.923 1.923 0 0 0 .638-.207 1.165 1.165 0 0 0 .425-.391 1.107 1.107 0 0 0 .155-.609 1.006 1.006 0 0 0-.161-.581 1.163 1.163 0 0 0-.443-.379 2.393 2.393 0 0 0-.661-.213 4.5 4.5 0 0 0-.8-.069q-.426 0-.667.012T-9-7.073zM.259.172A3.489 3.489 0 0 1-1.1-.069a2.536 2.536 0 0 1-.941-.661 2.7 2.7 0 0 1-.546-.995 4.175 4.175 0 0 1-.178-1.242v-5h1.115v4.876a2.414 2.414 0 0 0 .529 1.736 1.845 1.845 0 0 0 1.38.54 2.185 2.185 0 0 0 .776-.132 1.55 1.55 0 0 0 .6-.408 1.875 1.875 0 0 0 .391-.707 3.4 3.4 0 0 0 .138-1.029V-7.97h1.119v5A4.175 4.175 0 0 1 3.1-1.725a2.658 2.658 0 0 1-.552.995 2.6 2.6 0 0 1-.943.661A3.446 3.446 0 0 1 .259.172zM7.1 0v-3.2q-.793-1.23-1.495-2.426T4.284-7.97h1.311q.437.943.977 1.915t1.116 1.869q.563-.9 1.1-1.869t.993-1.915h1.242Q10.4-6.819 9.7-5.629T8.217-3.22V0z" transform="translate(38 532)" style="fill:#a4edd9"/>
    </g>
</svg>
