<svg id="calendar" xmlns="http://www.w3.org/2000/svg" width="14" height="14" viewBox="0 0 14 14">
  <path id="Path_62521" data-name="Path 62521" d="M1.177,5.4H12.823v7.487H1.177Zm0-3.074H12.823V4.281H1.177ZM9.77,0V1.207H4.22V0H3.054V1.207H0V14H14V1.207H10.946V0Z" fill="#696f8e"/>
  <path id="Path_62522" data-name="Path 62522" d="M1.177,5.4H12.823v7.487H1.177Zm0-3.074H12.823V4.281H1.177ZM9.77,0V1.207H4.22V0H3.054V1.207H0V14H14V1.207H10.946V0Z" fill="#161629"/>
  <path id="Path_62523" data-name="Path 62523" d="M1.177,5.4H12.823v7.487H1.177Zm0-3.074H12.823V4.281H1.177ZM9.77,0V1.207H4.22V0H3.054V1.207H0V14H14V1.207H10.946V0Z" fill="#696f8e"/>
</svg>
