<svg xmlns="http://www.w3.org/2000/svg" width="16" height="16" viewBox="0 0 19.659 19.9">
  <g id="Copy" transform="translate(-1093.146 -422.088)">
    <g id="Group_50667" data-name="Group 50667" transform="translate(1093.146 422.088)">
      <path id="Path_61850" data-name="Path 61850" d="M130.552,264.1q0,3.088,0,6.176c0,.655-.29.945-.944.945H117.314c-.65,0-.941-.293-.941-.949q0-6.166,0-12.333c0-.665.293-.958.955-.958H129.6c.652,0,.95.294.95.941Q130.553,261.014,130.552,264.1Zm-1.6-5.517H117.983v11.035H128.95Z" transform="translate(-110.893 -251.324)" fill="#6582fd"/>
      <path id="Path_61851" data-name="Path 61851" d="M61.685,189.135H60.1v-1.687H49.111v11.035h1.5v1.587c-.061,0-.119.01-.176.01-1.039,0-.993,0-2.032,0a.805.805,0,0,1-.9-.893q0-6.226,0-12.453a.8.8,0,0,1,.9-.893q6.2,0,12.394,0a.8.8,0,0,1,.888.881c0,1.106,0,1.125,0,2.231Z" transform="translate(-47.506 -185.84)" fill="#6582fd"/>
    </g>
  </g>
</svg>

