<svg xmlns="http://www.w3.org/2000/svg" width="20.894" height="20.898" viewBox="0 0 20.894 20.898">
  <g id="Deactivate" transform="translate(-47.549 -895.1)">
    <g id="noun-user-disabled-504776" transform="translate(47.949 895.5)">
      <path id="Path_62398" data-name="Path 62398" d="M189.428,11.426a5.713,5.713,0,1,1,5.7-5.728A5.691,5.691,0,0,1,189.428,11.426Zm0-10.82a5.107,5.107,0,1,0,5.092,5.122A5.1,5.1,0,0,0,189.428.606Z" transform="translate(-180.422 0)" fill="#696f8e" stroke="#696f8e" stroke-width="0.8"/>
      <path id="Path_62399" data-name="Path 62399" d="M93.866,316.519H93.26a8.927,8.927,0,0,1,8.88-8.949v.611a8.317,8.317,0,0,0-8.274,8.338Z" transform="translate(-93.26 -296.767)" fill="#696f8e" stroke="#696f8e" stroke-width="0.8"/>
      <g id="Group_51604" data-name="Group 51604" transform="translate(14.011 13.968)">
        <path id="Path_62400" data-name="Path 62400" d="M450.021,350.207l5.512-5.512.476.476-5.512,5.512Z" transform="translate(-450.021 -344.695)" fill="#696f8e" stroke="#696f8e" stroke-width="0.7"/>
        <path id="Path_62401" data-name="Path 62401" d="M455.54,351.561l-5.518-5.521.476-.476,5.512,5.512Z" transform="translate(-450.021 -345.53)" fill="#696f8e" stroke="#696f8e" stroke-width="0.7"/>
      </g>
    </g>
  </g>
</svg>
