<svg id="Deactivate_User" data-name="Deactivate User" xmlns="http://www.w3.org/2000/svg" xmlns:xlink="http://www.w3.org/1999/xlink" width="21" height="21" viewBox="0 0 21 21">
  <defs>
    <clipPath id="clip-path">
      <rect id="Rectangle_10813" data-name="Rectangle 10813" width="21" height="21" fill="#696f8e"/>
    </clipPath>
  </defs>
  <g id="Group_71871" data-name="Group 71871" clip-path="url(#clip-path)">
    <path id="Path_62554" data-name="Path 62554" d="M9.439,0h-.01A6.132,6.132,0,0,0,6.273,11.39,9.384,9.384,0,0,0,0,20.256v.4H1.417v-.4a7.961,7.961,0,0,1,7.851-7.982h.462a6.025,6.025,0,0,0,4.091-1.809A6.149,6.149,0,0,0,9.439,0m3.337,9.5a4.737,4.737,0,0,1-3.046,1.367,2.825,2.825,0,0,1-.292.01h-.01a1.1,1.1,0,0,1-.261-.02,4.728,4.728,0,0,1,.271-9.449h.02v-.4l.01.4A4.734,4.734,0,0,1,12.777,9.5" transform="translate(0)" fill="#696f8e"/>
    <path id="Path_62555" data-name="Path 62555" d="M18.383,17.4l2.543,2.543-.965.985-2.553-2.553L14.9,20.887l-.975-.975,2.513-2.523L13.92,14.875,14.9,13.9l2.513,2.513,2.543-2.543.975.975Z" transform="translate(0.073 0.073)" fill="#696f8e"/>
  </g>
</svg>
