<svg xmlns="http://www.w3.org/2000/svg" width="33" height="33" viewBox="0 0 33 33">
  <g id="Deposit" transform="translate(-40 -454)">
    <path id="Rectangle_3141" data-name="Rectangle 3141" d="M13,0H33a0,0,0,0,1,0,0V33a0,0,0,0,1,0,0H0a0,0,0,0,1,0,0V13A13,13,0,0,1,13,0Z" transform="translate(40 454)" fill="#8ff" opacity="0.08"/>
    <path id="Path_61038" data-name="Path 61038" d="M3.569,10.952H5.342V1.939L7.7,4.3l1.233-1.23L4.451-1.414,0,3.037l1.191,1.2L3.51,1.914l.059.032Z" transform="translate(66.061 474.463) rotate(135)" fill="#2df4be"/>
    <path id="Path_61060" data-name="Path 61060" d="M1.9.157H0V1.919H1.9Z" transform="translate(51.563 464.811) rotate(45)" fill="#2df4be"/>
  </g>
</svg>
