<svg xmlns="http://www.w3.org/2000/svg" width="66" height="66" viewBox="0 0 66 66">
  <g id="Face_ID" data-name="Face ID" transform="translate(0 0)">
    <g id="Face-ID" transform="translate(0 0)">
      <g id="Group_71697" data-name="Group 71697">
        <g id="Group_71696" data-name="Group 71696">
          <g id="Corners">
            <g id="Corner">
              <path id="Path_62419" data-name="Path 62419" d="M3.394,18.1V10.749a7.239,7.239,0,0,1,7.354-7.354H18.1A1.7,1.7,0,0,0,18.1,0H10.749A10.632,10.632,0,0,0,0,10.749V18.1a1.7,1.7,0,0,0,3.394,0Z" transform="translate(0 0)" fill="#6582fd"/>
            </g>
            <g id="Corner-2" data-name="Corner" transform="translate(66 19.8) rotate(180)">
              <path id="Path_62420" data-name="Path 62420" d="M3.394,1.7V9.051a7.239,7.239,0,0,0,7.354,7.354H18.1a1.7,1.7,0,0,1,0,3.394H10.749A10.632,10.632,0,0,1,0,9.051V1.7a1.7,1.7,0,0,1,3.394,0Z" transform="translate(0 0)" fill="#6582fd"/>
            </g>
            <g id="Corner-3" data-name="Corner" transform="translate(0 46.2)">
              <path id="Path_62421" data-name="Path 62421" d="M3.394-22.3v7.354a7.239,7.239,0,0,0,7.354,7.354H18.1a1.7,1.7,0,0,1,1.7,1.7,1.7,1.7,0,0,1-1.7,1.7H10.749A10.632,10.632,0,0,1,0-14.949V-22.3A1.7,1.7,0,0,1,1.7-24,1.7,1.7,0,0,1,3.394-22.3Z" transform="translate(0 24)" fill="#6582fd"/>
            </g>
            <g id="Corner-4" data-name="Corner" transform="translate(66 66) rotate(180)">
              <path id="Path_62422" data-name="Path 62422" d="M3.394,18.1V10.749a7.239,7.239,0,0,1,7.354-7.354H18.1A1.7,1.7,0,0,0,18.1,0H10.749A10.632,10.632,0,0,0,0,10.749V18.1a1.7,1.7,0,0,0,3.394,0Z" fill="#6582fd"/>
            </g>
          </g>
          <g id="Eye" transform="translate(17.947 23.158)">
            <path id="Path" d="M0,1.768V6.485A1.712,1.712,0,0,0,1.65,8.253,1.712,1.712,0,0,0,3.3,6.485V1.768A1.712,1.712,0,0,0,1.65,0,1.712,1.712,0,0,0,0,1.768Z" fill="#6582fd"/>
          </g>
          <g id="Eye-2" data-name="Eye" transform="translate(45.158 23.158)">
            <path id="Path-2" data-name="Path" d="M0,1.768V6.485A1.712,1.712,0,0,0,1.65,8.253,1.712,1.712,0,0,0,3.3,6.485V1.768A1.712,1.712,0,0,0,1.65,0,1.712,1.712,0,0,0,0,1.768Z" fill="#6582fd"/>
          </g>
          <path id="Mouth" d="M25.815,58.445a16.471,16.471,0,0,0,11.606,4.52,16.471,16.471,0,0,0,11.606-4.52,1.737,1.737,0,1,0-2.37-2.539,13,13,0,0,1-9.236,3.586,13,13,0,0,1-9.236-3.586,1.737,1.737,0,1,0-2.37,2.539Z" transform="translate(-4.421 -9.702)" fill="#6582fd"/>
          <path id="Nose" d="M39.14,29.807V41.965a1.02,1.02,0,0,1-1.162,1.158H36.825a1.737,1.737,0,0,0,0,3.474h1.154a4.466,4.466,0,0,0,4.636-4.632V29.807a1.737,1.737,0,1,0-3.474,0Z" transform="translate(-6.14 -4.912)" fill="#6582fd"/>
        </g>
      </g>
    </g>
  </g>
</svg>
