<svg xmlns="http://www.w3.org/2000/svg" width="19.5" height="17.193" viewBox="0 0 19.5 17.193">
  <g id="Fee" transform="translate(-485.924 -576.925)" opacity="0.8">
    <path id="Union_24" data-name="Union 24" d="M14.674,15.747a4.124,4.124,0,0,0-2.538,1.2,3.542,3.542,0,0,0-2.484-1.2,3.315,3.315,0,0,0-2.419,1.2,4.318,4.318,0,0,0-2.63-1.2,4.476,4.476,0,0,0-2.667,1.2V.895H0V0H19.35V.895H17.415V16.942A5.012,5.012,0,0,0,14.674,15.747Zm-2.511-.023a4.5,4.5,0,0,1,2.511-.872,4.425,4.425,0,0,1,1.773.412V.895H2.9V15.229a4.273,4.273,0,0,1,1.7-.377,4.71,4.71,0,0,1,2.578.869,4.082,4.082,0,0,1,2.471-.869A4.256,4.256,0,0,1,12.163,15.723ZM6.772,8.47V7.5h5.8V8.47Z" transform="translate(485.999 577)" fill="#c0c5e0" stroke="#c0c5e0" stroke-width="0.15"/>
  </g>
</svg>
