<svg xmlns="http://www.w3.org/2000/svg" width="34" height="34" viewBox="0 0 34 34">
  <g id="Filter" transform="translate(-321 -121)">

    <g id="Group_50140" data-name="Group 50140" transform="translate(525.5 -144.365)">
      <path id="Path_61034" data-name="Path 61034" d="M-179.669,426.259h-2.374c0,.211,0,.409,0,.607a.7.7,0,0,1-.769.776q-1.306,0-2.613,0a.7.7,0,0,1-.775-.786c0-.189,0-.378,0-.585h-6.951v-1.392h6.951c0-.231,0-.44,0-.65a.7.7,0,0,1,.741-.742q1.339,0,2.677,0a.7.7,0,0,1,.737.746c0,.205,0,.411,0,.632h2.374Zm-3.774,0v-1.367H-184.8v1.367Z" transform="translate(-1.054 -139.084)" fill="#fff" stroke="#4a6dff" stroke-width="0.2"/>
      <path id="Path_61035" data-name="Path 61035" d="M-180.681,350.257v1.387h-6.956c0,.228,0,.437,0,.647a.694.694,0,0,1-.74.742q-1.339,0-2.678,0a.693.693,0,0,1-.738-.743c0-.205,0-.411,0-.636h-2.374v-1.388h2.374c0-.229,0-.438,0-.648a.693.693,0,0,1,.742-.74q1.331,0,2.661,0a.7.7,0,0,1,.753.761c0,.2,0,.4,0,.619Zm-9.713.016v1.357h1.357v-1.357Z" transform="translate(-0.038 -71.054)" fill="#fff" stroke="#4a6dff" stroke-width="0.2"/>
    </g>
  </g>
</svg>
