<svg xmlns="http://www.w3.org/2000/svg" xmlns:xlink="http://www.w3.org/1999/xlink" width="20" height="18" viewBox="0 0 20 18">
  <defs>
    <clipPath id="clip-path">
      <rect id="Rectangle_18090" data-name="Rectangle 18090" width="20" height="18" transform="translate(267 168)" fill="#fff"/>
    </clipPath>
  </defs>
  <g id="Filter" transform="translate(-267 -168)" clip-path="url(#clip-path)">
    <path id="Path_89264" data-name="Path 89264" d="M228.917,232.7c0-.221,0-.415,0-.609.019-.978,0-1.629,0-1.629H234.9v5.678h-5.981s0-.617,0-1.73c0-.157,0-.314,0-.5h-4.194V232.7h4.194Zm4.692.567c0-.375.006-.75,0-1.125-.008-.392,0-.623,0-.623H230.1s.007.224,0,.6q-.021,1.152,0,2.3c.006.385,0,.61,0,.61h3.506S233.609,233.646,233.609,233.271Z" transform="translate(42.277 -61.467)" fill="#fff" stroke="#fff" stroke-width="0.1"/>
    <path id="Path_89265" data-name="Path 89265" d="M378.98,297.833c0,.217,0,.4,0,.587-.016,1.007,0,1.792,0,1.792s-3.382.014-4.185,0c-1.018-.016-1.8,0-1.8,0v-5.968s.784.014,1.8,0q1.191-.017,2.383,0c1.04.017,1.793,0,1.793,0s0,2.179,0,2.381h4.145l-.007,1.2s-1.439,0-2.159,0Zm-4.68,1.125s.233,0,.641,0q1.111.007,2.222,0c.4,0,.647,0,.647,0v-3.511s-.244,0-.629,0q-1.125-.009-2.249,0c-.4,0-.631,0-.631,0Z" transform="translate(-96.125 -115.219)" fill="#fff" stroke="#fff" stroke-width="0.1"/>
    <path id="Path_89266" data-name="Path 89266" d="M340.83,251.992l-.012,1.18-8.663,0v-1.183Z" transform="translate(-53.834 -80.754)" fill="#fff" stroke="#fff" stroke-width="0.1"/>
    <path id="Path_89267" data-name="Path 89267" d="M234.153,315.994l.014,1.177-8.547-.014.014-1.152Z" transform="translate(41.402 -134.68)" fill="#fff" stroke="#fff" stroke-width="0.1"/>
  </g>
</svg>
