<svg xmlns="http://www.w3.org/2000/svg" width="106.014" height="95.603" viewBox="0 0 106.014 95.603">
  <g id="Gear" transform="translate(-849.036 -310.634)">
    <g id="Group_50601" data-name="Group 50601" transform="matrix(0.978, -0.208, 0.208, 0.978, 903.743, 351.964)" opacity="0.6">
      <path id="Union_6" data-name="Union 6" d="M11.128,35.952a18.094,18.094,0,0,1-5.791-4.011,18.674,18.674,0,0,1-3.905-5.949,19.228,19.228,0,0,1,0-14.567A18.683,18.683,0,0,1,5.338,5.479a18.074,18.074,0,0,1,5.791-4.01,17.852,17.852,0,0,1,14.187,0,18.082,18.082,0,0,1,5.792,4.01,18.66,18.66,0,0,1,3.906,5.946,19.228,19.228,0,0,1,0,14.567,18.662,18.662,0,0,1-3.906,5.949,18.112,18.112,0,0,1-5.792,4.011,17.842,17.842,0,0,1-14.187,0ZM8.405,8.628a14.537,14.537,0,0,0,0,20.163,13.634,13.634,0,0,0,19.636,0,14.537,14.537,0,0,0,0-20.163,13.632,13.632,0,0,0-19.636,0Zm6.348,9.99a3.471,3.471,0,1,1,3.471,3.47A3.471,3.471,0,0,1,14.753,18.618Z" transform="translate(4.839 4.841)" fill="#6582fd"/>
      <rect id="Rectangle_5452" data-name="Rectangle 5452" width="4.841" height="6.454" transform="translate(20.616 0)" fill="#6582fd"/>
      <rect id="Rectangle_5454" data-name="Rectangle 5454" width="4.841" height="6.454" transform="translate(46.932 21.131) rotate(90)" fill="#6582fd"/>
      <rect id="Rectangle_5455" data-name="Rectangle 5455" width="4.841" height="6.454" transform="translate(6.454 21.131) rotate(90)" fill="#6582fd"/>
      <rect id="Rectangle_5456" data-name="Rectangle 5456" width="4.841" height="6.454" transform="translate(12.085 8.912) rotate(132)" fill="#6582fd"/>
      <rect id="Rectangle_5458" data-name="Rectangle 5458" width="4.841" height="6.454" transform="translate(7.288 42.669) rotate(-132)" fill="#6582fd"/>
      <rect id="Rectangle_5457" data-name="Rectangle 5457" width="4.84" height="6.454" transform="translate(38.855 4.593) rotate(48)" fill="#6582fd"/>
      <rect id="Rectangle_5459" data-name="Rectangle 5459" width="4.841" height="6.454" transform="translate(34.057 38.351) rotate(-48)" fill="#6582fd"/>
      <rect id="Rectangle_5453" data-name="Rectangle 5453" width="4.841" height="6.454" transform="translate(20.616 40.649)" fill="#6582fd"/>
    </g>
    <g id="Group_51045" data-name="Group 51045" transform="matrix(0.978, -0.208, 0.208, 0.978, 869.149, 382.421)" opacity="0.4">
      <path id="Union_6-2" data-name="Union 6" d="M3.042,18.2a10.867,10.867,0,0,1,0-15.081,10.2,10.2,0,0,1,14.687,0,10.869,10.869,0,0,1,0,15.081,10.2,10.2,0,0,1-14.687,0Zm.239-7.541a7.222,7.222,0,0,0,7.106,7.318,7.222,7.222,0,0,0,7.106-7.318,7.223,7.223,0,0,0-7.106-7.318A7.222,7.222,0,0,0,3.281,10.663Zm5.127-.053a1.978,1.978,0,1,1,1.977,1.978A1.978,1.978,0,0,1,8.408,10.61Z" transform="translate(2.758 2.76)" fill="#6582fd"/>
      <rect id="Rectangle_5452-2" data-name="Rectangle 5452" width="2.759" height="3.678" transform="translate(11.75 0)" fill="#6582fd"/>
      <rect id="Rectangle_5454-2" data-name="Rectangle 5454" width="2.759" height="3.678" transform="translate(26.748 12.043) rotate(90)" fill="#6582fd"/>
      <rect id="Rectangle_5455-2" data-name="Rectangle 5455" width="2.759" height="3.678" transform="translate(3.678 12.043) rotate(90)" fill="#6582fd"/>
      <rect id="Rectangle_5456-2" data-name="Rectangle 5456" width="2.759" height="3.678" transform="translate(6.887 5.079) rotate(132)" fill="#6582fd"/>
      <rect id="Rectangle_5458-2" data-name="Rectangle 5458" width="2.759" height="3.678" transform="translate(4.154 24.318) rotate(-132)" fill="#6582fd"/>
      <rect id="Rectangle_5457-2" data-name="Rectangle 5457" width="2.759" height="3.678" transform="translate(22.144 2.618) rotate(48)" fill="#6582fd"/>
      <rect id="Rectangle_5459-2" data-name="Rectangle 5459" width="2.759" height="3.678" transform="translate(19.41 21.857) rotate(-48)" fill="#6582fd"/>
      <rect id="Rectangle_5453-2" data-name="Rectangle 5453" width="2.759" height="3.678" transform="translate(11.75 23.167)" fill="#6582fd"/>
    </g>
    <g id="Group_50602" data-name="Group 50602" transform="translate(853.527 307.041) rotate(8)">
      <path id="Union_7" data-name="Union 7" d="M22.586,45.18A22.583,22.583,0,0,1,6.615,6.616,22.589,22.589,0,1,1,38.561,38.561,22.522,22.522,0,0,1,22.586,45.18Zm0-39.8a17.205,17.205,0,1,0,12.173,5.041A17.1,17.1,0,0,0,22.586,5.376Z" transform="translate(6.454 6.454)" fill="#6582fd"/>
      <rect id="Rectangle_5461" data-name="Rectangle 5461" width="6.454" height="8.875" transform="translate(25.817 0)" fill="#6582fd"/>
      <rect id="Rectangle_5460" data-name="Rectangle 5460" width="6.454" height="8.068" transform="translate(58.896 25.817) rotate(90)" fill="#6582fd"/>
      <rect id="Rectangle_5465" data-name="Rectangle 5465" width="6.454" height="8.875" transform="translate(8.875 25.817) rotate(90)" fill="#6582fd"/>
      <rect id="Rectangle_5466" data-name="Rectangle 5466" width="6.456" height="8.609" transform="translate(16.118 11.877) rotate(132)" fill="#6582fd"/>
      <rect id="Rectangle_5467" data-name="Rectangle 5467" width="6.456" height="8.608" transform="translate(9.721 52.186) rotate(-132)" fill="#6582fd"/>
      <rect id="Rectangle_5462" data-name="Rectangle 5462" width="6.456" height="8.608" transform="translate(48.411 6.118) rotate(48)" fill="#6582fd"/>
      <rect id="Rectangle_5463" data-name="Rectangle 5463" width="6.456" height="8.608" transform="translate(42.011 46.426) rotate(-48)" fill="#6582fd"/>
      <rect id="Rectangle_5464" data-name="Rectangle 5464" width="6.454" height="8.875" transform="translate(25.817 49.214)" fill="#6582fd"/>
      <ellipse id="Ellipse_290" data-name="Ellipse 290" cx="4.336" cy="3.855" rx="4.336" ry="3.855" transform="translate(24.706 26.162) rotate(-8)" fill="#6582fd"/>
    </g>
  </g>
</svg>
