<svg xmlns="http://www.w3.org/2000/svg" width="97.7" height="53" viewBox="0 0 97.7 53">
  <g id="Success" transform="translate(-134.941 -264)">
    <path id="Path_61960" data-name="Path 61960" d="M26.5,0A26.5,26.5,0,1,1,0,26.5,26.5,26.5,0,0,1,26.5,0Z" transform="translate(161 264)" fill="#25d8d1"/>
    <path id="Path_61518" data-name="Path 61518" d="M13.128-5.1l1.595,1.59c-2.334,2.334-6.631,7.143-8.968,9.48L0,.215,1.539-1.333C2.924.052,5.755,2.818,5.755,2.818Z" transform="translate(181.139 291.064)" fill="#fff" stroke="#fff" stroke-width="1"/>
    <path id="Path_61961" data-name="Path 61961" d="M1.98,0A1.98,1.98,0,1,1,0,1.98,1.98,1.98,0,0,1,1.98,0Z" transform="translate(142.313 301.039)" fill="#25d8d1" opacity="0.608"/>
    <path id="Path_61963" data-name="Path 61963" d="M1.98,0A1.98,1.98,0,1,1,0,1.98,1.98,1.98,0,0,1,1.98,0Z" transform="translate(228.682 269.686)" fill="#25d8d1" opacity="0.738"/>
    <path id="Path_61962" data-name="Path 61962" d="M4.676,0A4.676,4.676,0,1,1,0,4.676,4.676,4.676,0,0,1,4.676,0Z" transform="translate(134.941 269.686)" fill="#25d8d1" opacity="0.561"/>
    <path id="Path_61964" data-name="Path 61964" d="M7.338,0A7.338,7.338,0,1,1,0,7.338,7.338,7.338,0,0,1,7.338,0Z" transform="translate(215.986 302.324)" fill="#25d8d1" opacity="0.812"/>
  </g>
</svg>
