<svg xmlns="http://www.w3.org/2000/svg" width="14.172" height="14.237" viewBox="0 0 14.172 14.237">
  <g id="Link" transform="translate(0 0.15)">
    <path id="Path_61881" data-name="Path 61881" d="M60.848,194.471H59.6v3.488H48.852v-10.82h3.33v-1.3s-2.851,0-3.829,0a.758.758,0,0,0-.846.841q0,5.861,0,11.721a.75.75,0,0,0,.843.84H60.012a.749.749,0,0,0,.836-.829C60.851,197.373,60.848,194.471,60.848,194.471Z" transform="translate(-47.506 -185.156)" fill="#6582fd"/>
    <path id="noun-open-2303178" d="M84.668.339a.561.561,0,0,1,.03.284V5.47H83.566V1.935L77.723,7.809l-.8-.8L82.78,1.121H79.231V-.011h4.921a.564.564,0,0,1,.516.349Z" transform="translate(-70.682 0.012)" fill="#6582fd" stroke="#6582fd" stroke-width="0.3" fill-rule="evenodd"/>
  </g>
</svg>
