<svg xmlns="http://www.w3.org/2000/svg" width="40.321" height="37.681" viewBox="0 0 40.321 37.681">
  <g id="list" transform="translate(-2.5 -5.504)">
    <g id="Group_43603" data-name="Group 43603" transform="translate(3 6.004)">
      <g id="Group_43602" data-name="Group 43602" transform="translate(0 0)">
        <path id="Path_9462" data-name="Path 9462" d="M35,32.2V6H3V37.14l.006.058a7.267,7.267,0,0,0,.884,2.679,5.358,5.358,0,0,0,4.9,2.807H36.729a5.6,5.6,0,0,0,5.592-5.592V32.2H35ZM12.146,37.161a4.613,4.613,0,0,1-.208.821c-.018.051-.037.1-.058.157l-.013.031a4.259,4.259,0,0,1-.232.49q-.039.069-.081.139a2.985,2.985,0,0,1-2.76,1.457,2.968,2.968,0,0,1-2.761-1.523,5,5,0,0,1-.6-1.725V8.432H32.576V32.2H12.146Zm27.747-.069a3.168,3.168,0,0,1-3.164,3.164H13.5l.015-.023.058-.091L13.6,40.1c.027-.044.054-.088.079-.131a6.894,6.894,0,0,0,.884-2.616l.006-.058V34.631H39.893Z" transform="translate(-3 -6.004)" fill="#696f8e" stroke="#1f1f35" stroke-width="1"/>
      </g>
    </g>
    <g id="Group_43605" data-name="Group 43605" transform="translate(13.002 20.313)">
      <g id="Group_43604" data-name="Group 43604" transform="translate(0)">
        <rect id="Rectangle_715" data-name="Rectangle 715" width="13.333" height="2.428" fill="#696f8e" stroke="#1f1f35" stroke-width="1"/>
      </g>
    </g>
  </g>
</svg>
