<svg xmlns="http://www.w3.org/2000/svg" width="36" height="26" viewBox="0 0 36 26">
  <g id="MC_card" data-name="MC card" transform="translate(-771 -643.146)">
    <rect id="Rectangle_5497" data-name="Rectangle 5497" width="36" height="26" rx="3" transform="translate(771 643.146)" fill="#fff" opacity="0.879"/>
    <g id="Group_50750" data-name="Group 50750" transform="translate(779.421 650.344)">
      <rect id="Rectangle_278" data-name="Rectangle 278" width="6.011" height="9.123" transform="translate(6.847 1.239)" fill="#ff5f00"/>
      <g id="Group_50613" data-name="Group 50613">
        <path id="Path_7816" data-name="Path 7816" d="M163.358,15.424a5.818,5.818,0,0,1,2.208-4.561,5.8,5.8,0,1,0,0,9.123A5.794,5.794,0,0,1,163.358,15.424Z" transform="translate(-156.186 -9.622)" fill="#eb001b"/>
        <path id="Path_7817" data-name="Path 7817" d="M306,15.424a5.8,5.8,0,0,1-9.381,4.561,5.815,5.815,0,0,0,0-9.123A5.8,5.8,0,0,1,306,15.424Z" transform="translate(-286.843 -9.622)" fill="#f79e1b"/>
      </g>
    </g>
  </g>
</svg>
