<svg id="portfolio" xmlns="http://www.w3.org/2000/svg" width="15.154" height="15.154" viewBox="0 0 15.154 15.154">
  <g id="Group_43534" data-name="Group 43534">
    <path id="Path_8772" data-name="Path 8772" d="M13.97,12.786c0,.653.064,1.184-.589,1.184H1.911c-.653,0-.727-.531-.727-1.184V7.447l.032.025.038.027,2.3,1.466v.773a.592.592,0,0,0,1.184,0V8.874l5.683-.035v.9a.592.592,0,1,0,1.184,0V8.964L13.9,7.5l.038-.027.032-.025V9.8c0,.327,1.184.327,1.184,0V3.552c0-1.306-1.062-1.184-2.368-1.184H10.239V1.776C10.239.8,10.3,0,9.32,0h-3.5c-.979,0-.909.8-.909,1.776v.592H1.388C.082,2.368,0,3.43,0,4.736v8.051c0,1.306.082,2.368,1.388,2.368H13.9c1.306,0,1.254-1.062,1.254-2.368V8.964H13.97ZM6.1,1.776C6.1,1.449,6.051.9,6.377.9H8.766c.326,0,.289.549.289.875v.592H6.1ZM1.184,4.238c0-.653.531-.686,1.184-.686H12.786c.653,0,1.113.177,1.113.829L13.97,5.42c0,.29,0,.54-.727,1.094L11.112,7.873,4.07,7.891,1.911,6.514c-.727-.554-.727-.8-.727-1.094Z" fill="#c0c5e0"/>
  </g>
</svg>
