<svg xmlns="http://www.w3.org/2000/svg" width="16.206" height="16.2" viewBox="0 0 16.206 16.2">
  <g id="QR" transform="translate(-153.97 -293.418)">
    <path id="Path_61506" data-name="Path 61506" d="M162.192,464.021h-2.4v1.585h-5.6v-5.578h5.583v2.389h2.23c.062,0,.124.009.185.014l0-.005v1.6Zm-6.4-.015h2.386v-2.383H155.79Z" transform="translate(-0.116 -156.093)" fill="#6582fd" stroke="#1f1f35" stroke-width="0.2"/>
    <path id="Path_61507" data-name="Path 61507" d="M161.356,299.156l-6.96,0h-.214V293.56h5.588v3.174c.055.006.095.015.135.015q.665,0,1.329,0a.731.731,0,0,0,.12-.02l0,0a.8.8,0,0,1,.024.136q0,1.089,0,2.179a.6.6,0,0,1-.024.118Zm-5.573-4v2.385h2.383v-2.385Z" transform="translate(-0.105 -0.039)" fill="#6582fd" stroke="#1f1f35" stroke-width="0.2"/>
    <path id="Path_61508" data-name="Path 61508" d="M326.186,293.542v5.584H320.6v-5.584Zm-3.994,3.986h2.386v-2.384h-2.386Z" transform="translate(-156.11 -0.022)" fill="#6582fd" stroke="#1f1f35" stroke-width="0.2"/>
    <path id="Path_61509" data-name="Path 61509" d="M288.379,498.225v1.59h.785v1.593h-2.387v-1.578h-1.6v1.577h-3.2v-1.588l0,0h1.6v-1.6l0,0a1.381,1.381,0,0,1,.139-.014h4.545a1.378,1.378,0,0,1,.139.014Z" transform="translate(-119.895 -191.89)" fill="#6582fd" stroke="#1f1f35" stroke-width="0.2"/>
    <path id="Path_61510" data-name="Path 61510" d="M295.618,411.426V409.82h-.78c-.006-.056-.014-.1-.014-.135q0-.672,0-1.343a1.064,1.064,0,0,1,.023-.152l0,0c.066.006.133.018.2.018h5.389v1.995l0,0-1.577.006c-.008,0-.015-.013-.038-.034v-.342h-1.6v1.59h-1.606Z" transform="translate(-131.947 -107.497)" fill="#6582fd" stroke="#1f1f35" stroke-width="0.2"/>
    <path id="Path_61511" data-name="Path 61511" d="M268.784,295.15a.384.384,0,0,0,.02-.086q0-.724,0-1.447v-.1h1.6v1.636c-.045,0-.085.007-.124.007h-1.344c-.051,0-.1-.008-.153-.012Z" transform="translate(-107.534 0)" fill="#6582fd" stroke="#1f1f35" stroke-width="0.2"/>
    <path id="Path_61512" data-name="Path 61512" d="M154.07,410.329v-1.585h2.813v1.585Z" transform="translate(0 -108.017)" fill="#6582fd" stroke="#1f1f35" stroke-width="0.2"/>
    <path id="Path_61513" data-name="Path 61513" d="M232.591,408.155a.379.379,0,0,1,.015.074c0,.51,0,1.019,0,1.543h-1.577v-1.593h.12c.444,0,.889,0,1.333,0a.593.593,0,0,0,.11-.021Z" transform="translate(-71.337 -107.465)" fill="#6582fd" stroke="#1f1f35" stroke-width="0.2"/>
    <path id="Path_61514" data-name="Path 61514" d="M281.972,461.494v-1.63h1.595l0,0v1.633l0,0h-1.6Z" transform="translate(-119.896 -155.156)" fill="#6582fd" stroke="#1f1f35" stroke-width="0.2"/>
    <path id="Path_61515" data-name="Path 61515" d="M384.466,472.342l1.375.009h.211v1.617h-1.587l0,0v-1.633Z" transform="translate(-215.982 -167.634)" fill="#6582fd" stroke="#1f1f35" stroke-width="0.2"/>
    <path id="Path_61516" data-name="Path 61516" d="M268.767,383h1.622c0,.055.009.11.009.164,0,.415,0,.83,0,1.245a1.539,1.539,0,0,0,.017.167l0,0a1.043,1.043,0,0,1-.151.022q-.676,0-1.351,0a.956.956,0,0,1-.151-.024l0,0a.517.517,0,0,0,.022-.1q0-.692,0-1.385a.434.434,0,0,0-.018-.089Z" transform="translate(-107.52 -83.879)" fill="#6582fd" stroke="#1f1f35" stroke-width="0.2"/>
  </g>
</svg>
