<svg id="QR" xmlns="http://www.w3.org/2000/svg" xmlns:xlink="http://www.w3.org/1999/xlink" width="19.5" height="19.5" viewBox="0 0 19.5 19.5">
  <defs>
    <clipPath id="clip-path">
      <rect id="Rectangle_10792" data-name="Rectangle 10792" width="19.5" height="19.5" fill="#6582fd"/>
    </clipPath>
  </defs>
  <g id="Group_71844" data-name="Group 71844" clip-path="url(#clip-path)">
    <path id="Path_62529" data-name="Path 62529" d="M9.51,15.91H6.58V12.92H0V19.5H6.6V17.52H9.5c-.02-.65.04-1.34.01-1.61M5.08,18H1.5V14.42H5.08Z" fill="#6582fd"/>
    <path id="Path_62530" data-name="Path 62530" d="M6.95,4c-.02,0-.05-.01-.07-.01H6.82l-.34-.05V0H.1V6.4H8.49V4Zm-1.97.87H1.6V1.49H4.98Z" fill="#6582fd"/>
    <path id="Path_62531" data-name="Path 62531" d="M13.12,6.39H19.5V0H13.12Zm4.97-1.4H14.51V1.4h3.58Z" fill="#6582fd"/>
    <path id="Path_62532" data-name="Path 62532" d="M13.12,6.39H19.5V0H13.12Zm4.97-1.4H14.51V1.4h3.58Z" fill="#6582fd"/>
    <path id="Path_62533" data-name="Path 62533" d="M13.12,6.39H19.5V0H13.12Zm4.97-1.4H14.51V1.4h3.58Z" fill="#6582fd"/>
    <path id="Path_62534" data-name="Path 62534" d="M18.49,18.01V19.4H16.11V17.43h-2.6V19.4h-3.4V18.02H12.1V16.01h5.41v2Z" fill="#6582fd"/>
    <path id="Path_62535" data-name="Path 62535" d="M17.51,8.99v1.9H16.1v-.47H13.5V12.4H12.09v-2H11.1V8.99Z" fill="#6582fd"/>
    <rect id="Rectangle_10787" data-name="Rectangle 10787" width="1.4" height="1.45" transform="translate(9.09)" fill="#6582fd"/>
    <rect id="Rectangle_10788" data-name="Rectangle 10788" width="2.92" height="1.39" transform="translate(0.09 9.01)" fill="#6582fd"/>
    <rect id="Rectangle_10789" data-name="Rectangle 10789" width="1.37" height="1.39" transform="translate(7.12 9)" fill="#6582fd"/>
    <rect id="Rectangle_10790" data-name="Rectangle 10790" width="1.39" height="1.44" transform="translate(10.1 13.99)" fill="#6582fd"/>
    <path id="Path_62536" data-name="Path 62536" d="M19.49,14v1.42H18.11V13.99Z" fill="#6582fd"/>
    <rect id="Rectangle_10791" data-name="Rectangle 10791" width="1.41" height="1.4" transform="translate(9.09 7)" fill="#6582fd"/>
  </g>
</svg>
