<svg xmlns="http://www.w3.org/2000/svg" width="88.471" height="199.965" viewBox="0 0 88.471 199.965">
  <g id="Illustration" transform="translate(-39.377 37.929)">
    <g id="Group_51590" data-name="Group 51590" transform="translate(42.49 69.721) rotate(7)">
      <path id="Path_62316" data-name="Path 62316" d="M29.2,0C10.548,10.583-1.852,40.408.227,59.74" transform="translate(0 17.214) rotate(-17)" fill="none" stroke="#bec3db" stroke-linecap="round" stroke-linejoin="round" stroke-width="1.6"/>
      <path id="Path_62317" data-name="Path 62317" d="M0,0C31.82,29.487,28.8,58.746,25.7,74.154" transform="translate(57.654)" fill="none" stroke="#bec3db" stroke-linecap="round" stroke-linejoin="round" stroke-width="1.6"/>
      <path id="Path_62318" data-name="Path 62318" d="M1.651,0c-5.553,19.784,5.4,38.586,5.4,38.586" transform="translate(39.704 26.327)" fill="none" stroke="#bec3db" stroke-linecap="round" stroke-linejoin="round" stroke-width="1.6"/>
      <path id="Path_62319" data-name="Path 62319" d="M0,0C6.4,6,13.737,23.789,15.137,47.879" transform="translate(52.641 13.279)" fill="none" stroke="#bec3db" stroke-linecap="round" stroke-linejoin="round" stroke-width="1.6"/>
      <path id="Path_62320" data-name="Path 62320" d="M0,0C2.472,3.511,5.89,11.832,7.2,18.013" transform="translate(57.452 40.551) rotate(11)" fill="none" stroke="#bec3db" stroke-linecap="round" stroke-linejoin="round" stroke-width="1.6"/>
      <path id="Path_62321" data-name="Path 62321" d="M.491,17.379C-1.66,6.738,3.457-1.079,11.863.122" transform="translate(15.449 70.43)" fill="none" stroke="#bec3db" stroke-linecap="round" stroke-linejoin="round" stroke-width="1.6"/>
      <path id="Path_62322" data-name="Path 62322" d="M.792,6.805C-1.208,4.4.792.4,4.4,0" transform="translate(26.921 67.751)" fill="none" stroke="#bec3db" stroke-linecap="round" stroke-linejoin="round" stroke-width="1.6"/>
      <path id="Path_62323" data-name="Path 62323" d="M1.7,9.291C-.829,3.278,6.8-.743,10.666,2.776" transform="translate(26.809 59.66)" fill="none" stroke="#bec3db" stroke-linecap="round" stroke-linejoin="round" stroke-width="1.6"/>
      <path id="Path_62327" data-name="Path 62327" d="M0,.3C4.606-.2,6.4,3.9,5.6,7.5" transform="translate(83.752 73.457)" fill="none" stroke="#bec3db" stroke-linecap="round" stroke-linejoin="round" stroke-width="1.6"/>
      <path id="Path_62328" data-name="Path 62328" d="M6,5.247c.124-3.718-2.671-6.028-6-5.2" transform="translate(73.48 65.305)" fill="none" stroke="#bec3db" stroke-linecap="round" stroke-linejoin="round" stroke-width="1.6"/>
      <path id="Path_62329" data-name="Path 62329" d="M5.2,6.4C5.2,3.6,2.8.8,0,0" transform="translate(67.877 61.346)" fill="none" stroke="#bec3db" stroke-linecap="round" stroke-linejoin="round" stroke-width="1.6"/>
      <path id="Path_62330" data-name="Path 62330" d="M.019,4.138c-.27-2.7,2.428-5.4,4.856-3.507" transform="translate(41.916 64.813)" fill="none" stroke="#bec3db" stroke-linecap="round" stroke-linejoin="round" stroke-width="1.6"/>
      <path id="Path_62331" data-name="Path 62331" d="M0,6c0-2.4,2.293-4.35,5.891-3.525" transform="translate(46.926 61.346)" fill="none" stroke="#bec3db" stroke-linecap="round" stroke-linejoin="round" stroke-width="1.6"/>
    </g>
    <g id="Group_51585" data-name="Group 51585" transform="translate(84.266 -36.444) rotate(41)">
      <path id="Path_62333" data-name="Path 62333" d="M16.314,9.374C9.67,16.36,13.528,28.057,17.225,32.7c.774.973.072,2.162-1.358,1.313C-4.013,22.216.422,0,.422,0S1.436.873,7.1,4.651,16.314,9.374,16.314,9.374Z" transform="translate(31.29 55.836)" fill="none" stroke="#b1b9d0" stroke-linecap="round" stroke-linejoin="round" stroke-width="2"/>
      <path id="Path_62334" data-name="Path 62334" d="M7.127,17.037c7.825-5.633,18.889-.22,22.988,4.072.858.9,2.133.365,1.487-1.166C22.612-1.356,0,.018,0,.018S.727,1.142,3.7,7.265,7.127,17.037,7.127,17.037Z" transform="translate(51.453 38.599)" fill="none" stroke="#b1b9d0" stroke-linecap="round" stroke-linejoin="round" stroke-width="2"/>
      <path id="Path_62335" data-name="Path 62335" d="M.859.481c-2.965,2.587,2.7,22.508,2.7,22.508l18.806-16.4S3.823-2.106.859.481Z" fill="none" stroke="#b1b9d0" stroke-linecap="round" stroke-linejoin="round" stroke-width="2"/>
      <path id="Path_62336" data-name="Path 62336" d="M16.809,6.485,5.956,15.951,0,11.654,13.362,0Z" transform="translate(47.059 55.718)" fill="none" stroke="#b1b9d0" stroke-linecap="round" stroke-linejoin="round" stroke-width="2"/>
      <path id="Path_62337" data-name="Path 62337" d="M18.806,0,9.4,8.2,0,16.4C7.609,33.383,17.025,47.949,43.5,60.785L56.867,49.126C47.747,21.152,34.6,9.845,18.806,0Z" transform="translate(3.559 6.587)" fill="#161629" stroke="#b1b9d0" stroke-linecap="round" stroke-linejoin="round" stroke-width="2"/>
      <g id="Group_51583" data-name="Group 51583" transform="translate(19.664 22.989)">
        <path id="Path_62339" data-name="Path 62339" d="M5.738,1.121A3.272,3.272,0,1,1,1.121.806,3.272,3.272,0,0,1,5.738,1.121Z" fill="#b1b9d0"/>
      </g>
      <g id="Group_51584" data-name="Group 51584" transform="translate(55.104 64.006)">
        <path id="Path_62341" data-name="Path 62341" d="M0,6.67,7.648,0c13.443,7.24,11.74,20.271,11.74,20.271C4.213,20.808,0,6.67,0,6.67Z" fill="none" stroke="#b1b9d0" stroke-linecap="round" stroke-linejoin="round" stroke-width="2"/>
      </g>
    </g>
  </g>
</svg>
