<svg xmlns="http://www.w3.org/2000/svg" width="36" height="17" viewBox="0 0 36 17">
    <g transform="translate(-20 -385)">
        <rect data-name="Rectangle 3141" width="36" height="17" rx="8.5" transform="translate(20 385)" style="opacity:.09;fill:#f0abc0"/>
        <path data-name="Path 89561" d="M-9.47-.794q1.748 0 1.748-1.2a1.2 1.2 0 0 0-.155-.627 1.5 1.5 0 0 0-.42-.448 2.916 2.916 0 0 0-.6-.328q-.339-.138-.719-.276a7.326 7.326 0 0 1-.828-.339 2.9 2.9 0 0 1-.679-.448 1.9 1.9 0 0 1-.454-.615 2.024 2.024 0 0 1-.167-.862 2 2 0 0 1 .713-1.633 3.008 3.008 0 0 1 1.967-.586A5.192 5.192 0 0 1-7.751-8a3.01 3.01 0 0 1 .868.339l-.356.908a3.143 3.143 0 0 0-.719-.293 3.859 3.859 0 0 0-1.11-.144 2.461 2.461 0 0 0-.6.069 1.533 1.533 0 0 0-.483.207 1.024 1.024 0 0 0-.328.351 1 1 0 0 0-.121.5 1.064 1.064 0 0 0 .127.541 1.253 1.253 0 0 0 .356.385 3.058 3.058 0 0 0 .535.3q.3.138.673.276.518.207.949.414a3.089 3.089 0 0 1 .747.495 1.981 1.981 0 0 1 .489.684A2.4 2.4 0 0 1-6.549-2a1.88 1.88 0 0 1-.765 1.61A3.581 3.581 0 0 1-9.47.172a5.53 5.53 0 0 1-.868-.063 6.462 6.462 0 0 1-.707-.149 4.092 4.092 0 0 1-.535-.184q-.224-.1-.351-.167l.333-.92a5.034 5.034 0 0 0 .8.333 4.137 4.137 0 0 0 1.328.184zM-5.2 0v-7.97h4.861v.954h-3.749v2.369h3.335v.932h-3.335v2.76h4.036V0zM6.158-.966V0h-4.8v-7.97h1.12v7zm5.969 0V0h-4.8v-7.97h1.12v7z" transform="translate(38 398)" style="fill:#f0abc0"/>
    </g>
</svg>
