<svg xmlns="http://www.w3.org/2000/svg" xmlns:xlink="http://www.w3.org/1999/xlink" width="42" height="44" viewBox="0 0 42 44">
  <defs>
    <clipPath id="clip-path">
      <rect id="Rectangle_10698" data-name="Rectangle 10698" width="42" height="44" transform="translate(20 527)" fill="#fff" opacity="0"/>
    </clipPath>
  </defs>
  <g id="Touch_ID" data-name="Touch ID" transform="translate(-20 -527)" clip-path="url(#clip-path)">
    <g id="Group_71700" data-name="Group 71700" transform="translate(-225.11 -183.266)">
      <path id="Path_62431" data-name="Path 62431" d="M-4.311,6.741A14.636,14.636,0,0,1,.439-2.521,14.4,14.4,0,0,1,14.148-5.483a15.03,15.03,0,0,1,9.183,9.041c1.845,5.843-.824,8.918-4.781,8.8A4.808,4.808,0,0,1,13.857,8.12c-.476-3.83-2.926-6.182-5.714-5.835S1.066,5.513,5.3,14.611c3.706,6.848,11.284,6.04,11.284,6.04" transform="translate(256.013 727.703)" fill="none" stroke="#696f8e" stroke-linecap="square" stroke-width="1.8"/>
      <path id="Path_62432" data-name="Path 62432" d="M-1.366-.3A22.085,22.085,0,0,1,13.407-5.819a22.086,22.086,0,0,1,14.74,6" transform="translate(252.72 720.087)" fill="none" stroke="#696f8e" stroke-linecap="square" stroke-width="1.8"/>
      <path id="Path_62433" data-name="Path 62433" d="M0,0A11.744,11.744,0,0,0,2.616,4.483a10.3,10.3,0,0,0,4.217,2.7" transform="translate(252.288 741.061) rotate(6)" fill="none" stroke="#696f8e" stroke-linecap="square" stroke-width="1.8"/>
    </g>
  </g>
</svg>
