<svg id="Biometric" xmlns="http://www.w3.org/2000/svg" xmlns:xlink="http://www.w3.org/1999/xlink" width="42" height="44" viewBox="0 0 42 44">
  <defs>
    <clipPath id="clip-path">
      <rect id="Rectangle_10765" data-name="Rectangle 10765" width="42" height="44" fill="#696f8e"/>
    </clipPath>
  </defs>
  <g id="Group_71795" data-name="Group 71795" clip-path="url(#clip-path)">
    <g id="Group_71794" data-name="Group 71794">
      <g id="Group_71793" data-name="Group 71793" clip-path="url(#clip-path)">
        <g id="Group_71792" data-name="Group 71792" opacity="0">
          <g id="Group_71791" data-name="Group 71791">
            <g id="Group_71790" data-name="Group 71790" clip-path="url(#clip-path)">
              <rect id="Rectangle_10762" data-name="Rectangle 10762" width="42" height="44" fill="#696f8e"/>
            </g>
          </g>
        </g>
        <path id="Path_62493" data-name="Path 62493" d="M30.156,25.421V27.2a.775.775,0,0,1-.47.78.759.759,0,0,1-.89-.1.874.874,0,0,1-.31-.76c0-1.77.01-4.1,0-6.46a7.265,7.265,0,0,0-7.08-7.32,7.416,7.416,0,0,0-2.55.46,7.048,7.048,0,0,0-3.1,2.12,7.384,7.384,0,0,0-1.54,3.43,7.28,7.28,0,0,0-.11,1.4c-.01,1.33-.01,2.69-.01,4.01v2.38a.83.83,0,0,1-.61.9.908.908,0,0,1-.23.03h-.02a.817.817,0,0,1-.8-.84V22.5c0-.74-.01-1.5.01-2.24a8.725,8.725,0,0,1,2.13-5.49,8.817,8.817,0,0,1,5.12-2.94,9.634,9.634,0,0,1,1.61-.14,8.811,8.811,0,0,1,8.68,7.16,6.832,6.832,0,0,1,.16,1.36c.01,1.74.01,3.5.01,5.21" fill="#696f8e"/>
        <path id="Path_62494" data-name="Path 62494" d="M30.146,20.211a6.832,6.832,0,0,0-.16-1.36,8.811,8.811,0,0,0-8.68-7.16,9.634,9.634,0,0,0-1.61.14,8.817,8.817,0,0,0-5.12,2.94,8.725,8.725,0,0,0-2.13,5.49c-.02.74-.01,1.5-.01,2.24v4.73a.817.817,0,0,0,.8.84h.02a.908.908,0,0,0,.23-.03.83.83,0,0,0,.61-.9v-2.38c0-1.32,0-2.68.01-4.01a7.28,7.28,0,0,1,.11-1.4,7.384,7.384,0,0,1,1.54-3.43,7.048,7.048,0,0,1,3.1-2.12,7.416,7.416,0,0,1,2.55-.46,7.265,7.265,0,0,1,7.08,7.32c.01,2.36,0,4.69,0,6.46a.874.874,0,0,0,.31.76.759.759,0,0,0,.89.1.775.775,0,0,0,.47-.78v-1.78c0-1.71,0-3.47-.01-5.21" fill="#696f8e"/>
        <path id="Path_62495" data-name="Path 62495" d="M24.8,29.911a.827.827,0,0,1-.67.83.875.875,0,0,1-.93-.5,1.672,1.672,0,0,1-.07-.54v-9.06a1.808,1.808,0,0,0-1.57-1.9,1.275,1.275,0,0,0-.28-.02,1.805,1.805,0,0,0-1.81,1.63,3.1,3.1,0,0,0-.02.42v8.9a1.573,1.573,0,0,1-.06.53.8.8,0,0,1-.78.55.757.757,0,0,1-.15-.01.831.831,0,0,1-.68-.78c-.01-.42-.01-.85-.01-1.27v-8.15a3.521,3.521,0,0,1,3.05-3.47,3.726,3.726,0,0,1,.47-.04,3.513,3.513,0,0,1,3.36,2.54,4.072,4.072,0,0,1,.14,1.04c.01,1.1.01,2.22.01,3.3Z" fill="#696f8e"/>
        <path id="Path_62496" data-name="Path 62496" d="M5.938,11.882h-2V4.412H11.4V6.4H5.933Z" fill="#696f8e"/>
        <path id="Path_62497" data-name="Path 62497" d="M36.488,6.422H31.032V4.415h7.452v7.459h-2Z" fill="#696f8e"/>
        <path id="Path_62498" data-name="Path 62498" d="M11.391,38.964H3.936V31.506h2v5.433H11.39Z" fill="#696f8e"/>
        <path id="Path_62499" data-name="Path 62499" d="M36.474,36.962V31.507h2.007v7.451H31.022v-2Z" fill="#696f8e"/>
      </g>
    </g>
  </g>
</svg>
