<svg xmlns="http://www.w3.org/2000/svg" xmlns:xlink="http://www.w3.org/1999/xlink" width="66.221" height="65.19" viewBox="0 0 66.221 65.19">
  <defs>
    <clipPath id="clip-path">
      <rect id="Rectangle_10767" data-name="Rectangle 10767" width="66.221" height="65.19" transform="translate(0 0)" fill="#6582fd"/>
    </clipPath>
  </defs>
  <g id="fingerprint" transform="translate(0 0)">
    <g id="Group_71799" data-name="Group 71799" clip-path="url(#clip-path)">
      <path id="Path_62504" data-name="Path 62504" d="M3.427,29.17v.02c0,.03-.01.07-.01.1a1.163,1.163,0,0,0,.04-.18l-.03.06m57.65-4.78a.285.285,0,0,0,.08.14c-.04-.07-.06-.11-.08-.14" fill="#6582fd"/>
      <path id="Path_62505" data-name="Path 62505" d="M13.467,38.6v.04l.01.01Zm47.61-14.21a.285.285,0,0,0,.08.14c-.04-.07-.06-.11-.08-.14M3.427,29.17v.02c0,.03-.01.07-.01.1a1.163,1.163,0,0,0,.04-.18l-.03.06" fill="#6582fd"/>
      <path id="Path_62506" data-name="Path 62506" d="M34.077,35.33c.02.1.03.2.04.3v.04l.01.04a24.7,24.7,0,0,0,.61,2.51l.01.02c.07.21.13.42.2.65a7.17,7.17,0,0,0,.22.71c.05.15.1.28.14.39s.08.21.12.34l.02.08.04.04v.02l.03.08c.42.98.89,1.94,1.4,2.87l.02.03.01.02a6.493,6.493,0,0,1,.46.7,7.679,7.679,0,0,0,.45.71,2.565,2.565,0,0,0,.26.41.864.864,0,0,1,.07.14l.01.01c.08.09.15.18.23.28a2.1,2.1,0,0,0,.26.33,16.358,16.358,0,0,0,2.38,2.54.451.451,0,0,0,.2.21l.02.02a1.658,1.658,0,0,0,.44.35l.03.01.03.01a1.467,1.467,0,0,1,.37.24,2.769,2.769,0,0,0,.23.17l.04.02c.24.13.47.28.74.44s.53.33.81.48a15.176,15.176,0,0,0,3.45,1.32,18.88,18.88,0,0,0,4.73.55,51.047,51.047,0,0,0,5.24-.36h.09a1.643,1.643,0,0,1,1.45,1.71,1.725,1.725,0,0,1-1.61,1.71h-.01a45.767,45.767,0,0,1-5.23.34,21.6,21.6,0,0,1-6.68-.96,20.386,20.386,0,0,1-11.58-10.26,23.181,23.181,0,0,1-2.98-11.06v-.11a1.585,1.585,0,0,1,1.65-1.51.485.485,0,0,1,.17,0,1.44,1.44,0,0,1,1.36,1.51v1.66c0,.03.01.08.01.16" fill="#6582fd"/>
      <path id="Path_62507" data-name="Path 62507" d="M55.227,33.69v.01a1.669,1.669,0,0,1-3.33.17,18.693,18.693,0,0,0-.09-2.12c0-.04-.01-.1-.01-.16h.01a2.119,2.119,0,0,0-.05-.44,2.886,2.886,0,0,1-.04-.29V30.8a21.516,21.516,0,0,0-.87-3.45c-.05-.15-.12-.32-.19-.49-.06-.15-.12-.3-.16-.43v-.02a1.22,1.22,0,0,1-.07-.17,1.316,1.316,0,0,0-.15-.39.929.929,0,0,1-.05-.1,11.451,11.451,0,0,0-.89-1.87,15.5,15.5,0,0,0-2.63-3.64,18.162,18.162,0,0,0-7.85-5.06,20.534,20.534,0,0,0-6.64-1.13,18.178,18.178,0,0,0-6.12,1.04,19.913,19.913,0,0,0-5.01,2.71l-.03.01q-.255.225-.51.42a23.552,23.552,0,0,0-2.63,2.37,18.647,18.647,0,0,0-4.59,9.07,27.994,27.994,0,0,0-.52,5.4,25.2,25.2,0,0,0,.17,2.58,3.87,3.87,0,0,0,.05.49c.01.08.02.15.03.22a.972.972,0,0,0,.01.34l.02.12.06.06a.563.563,0,0,1,0,.13v.03l.04.23a15.678,15.678,0,0,0,.32,1.66,40.812,40.812,0,0,0,10.97,20.35,1.484,1.484,0,0,1,.34,1.71,1.765,1.765,0,0,1-1.52,1.12,1.405,1.405,0,0,1-1.01-.46,45.278,45.278,0,0,1-7.96-11.02,41.281,41.281,0,0,1-4.17-13.13,33.25,33.25,0,0,1-.19-7.66,26.473,26.473,0,0,1,1.8-7.43A22.587,22.587,0,0,1,19,15.25a24.262,24.262,0,0,1,5.03-2.92,21.531,21.531,0,0,1,5.45-1.51,20.753,20.753,0,0,1,3.05-.21,23.171,23.171,0,0,1,9.9,2.22,21.205,21.205,0,0,1,7.97,6.45,24.577,24.577,0,0,1,3.63,6.77,20.909,20.909,0,0,1,1.2,7.64" fill="#6582fd"/>
      <path id="Path_62508" data-name="Path 62508" d="M44.877,35.12a4.685,4.685,0,0,0,.19.99,7.074,7.074,0,0,0,.46,1.15v.01a9.148,9.148,0,0,0,8.3,5.23,9.244,9.244,0,0,0,2.86-.45,7.623,7.623,0,0,0,3.05-1.52,4.153,4.153,0,0,0,.75-.7l.46-.48.02-.04.16-.25a8.908,8.908,0,0,0,1.71-4.48V32.32a22.384,22.384,0,0,0-.09-2.32,1.338,1.338,0,0,0-.02-.23v-.1h.02a1.5,1.5,0,0,0-.05-.37.566.566,0,0,1-.03-.18v-.05l-.02-.05c-.03-.15-.05-.31-.07-.47a3.1,3.1,0,0,0-.1-.53v-.03a11.786,11.786,0,0,0-.34-1.65,19.371,19.371,0,0,0-.62-1.96c-.13-.33-.29-.67-.44-.98s-.3-.63-.42-.94v-.01c-.47-1.08-1.06-2.26-1.75-3.52a27.943,27.943,0,0,0-3.93-5.66,27.384,27.384,0,0,0-10.4-7.25,32.561,32.561,0,0,0-12.4-2.49,31.767,31.767,0,0,0-3.23.17,29.753,29.753,0,0,0-13.72,5.2,28.387,28.387,0,0,0-4.45,3.73,25.076,25.076,0,0,0-3.16,3.81,27.413,27.413,0,0,0-3.84,8.9,12.242,12.242,0,0,0-.39,1.67c-.04.25-.08.5-.14.75a5.583,5.583,0,0,0-.09.59,4.706,4.706,0,0,1-.08.5l-.01.04v.04a1.155,1.155,0,0,1-.02.16,1.722,1.722,0,0,0-.06.55,37.935,37.935,0,0,0-.26,4.52A35.367,35.367,0,0,0,2.9,38.4a3.657,3.657,0,0,0,.05.57c.02.17.03.33.04.5v.09l.03.08a.486.486,0,0,1,.05.29v.06c.04.31.1.64.14.97.04.26.08.53.12.78a39.231,39.231,0,0,0,1.92,7.77,1.712,1.712,0,0,1-.15,1.38,1.179,1.179,0,0,1-.5.56h-.02l-.03.01a1.308,1.308,0,0,1-.44.07c-.83,0-1.28-.83-1.45-1.24a1.825,1.825,0,0,0-.2-.61A50.943,50.943,0,0,1,.227,38.42a40.384,40.384,0,0,1,2.4-18.6,29.772,29.772,0,0,1,6.44-9.83,33.95,33.95,0,0,1,9.4-6.72A32.013,32.013,0,0,1,32.687,0a35.24,35.24,0,0,1,17.14,4.54,29.629,29.629,0,0,1,9.53,8.6,35.809,35.809,0,0,1,5.55,10.51,27.253,27.253,0,0,1,1.3,9.23,14.555,14.555,0,0,1-2.87,8.45,10.837,10.837,0,0,1-4.19,3.21,12.892,12.892,0,0,1-5.16,1.07,12.652,12.652,0,0,1-3.76-.57,12.1,12.1,0,0,1-6.34-4.61l-.02-.02a8.09,8.09,0,0,1-1.06-1.82l-.01-.03a12.4,12.4,0,0,1-.67-1.85v-.02c-.03-.12-.05-.25-.07-.38a4.005,4.005,0,0,0-.08-.48c-.01-.12-.03-.25-.05-.37v-.02a1.429,1.429,0,0,0-.04-.42c-.05-.47-.09-.93-.13-1.37a10.181,10.181,0,0,0-1.13-4.56,8.424,8.424,0,0,0-3.9-3.37,10.563,10.563,0,0,0-4.22-.91,8.532,8.532,0,0,0-4.16,1.04A8.391,8.391,0,0,0,25.1,29.1a11.366,11.366,0,0,0-1.24,6.82,3.419,3.419,0,0,0,.04.45,1.973,1.973,0,0,1,.04.35v.16l.09.09v.18c.08.5.16,1.06.25,1.73v.02a33.1,33.1,0,0,0,1.04,4.06l.01.02a6.736,6.736,0,0,0,.33,1.08,3.281,3.281,0,0,0,.2.52l.02.02.01.03.01.02v.01l.01.01.04.1c.34.71.69,1.46,1.04,2.19l.01.02a27.51,27.51,0,0,0,6.47,8.26,35.155,35.155,0,0,0,11.77,6.59,1.693,1.693,0,0,1,1.08,1.97,1.5,1.5,0,0,1-1.35,1.39,1.687,1.687,0,0,1-.5-.08,46.257,46.257,0,0,1-6.75-2.91h-.01a31.818,31.818,0,0,1-14.82-16.65,30.892,30.892,0,0,1-2.22-10.35,14.468,14.468,0,0,1,3.02-9.69,10.713,10.713,0,0,1,3.99-3.03,11.817,11.817,0,0,1,4.8-.98,12.987,12.987,0,0,1,7.65,2.5,11.13,11.13,0,0,1,4.41,7.01c.03.3.08.59.12.87a8.832,8.832,0,0,1,.14,1.36v.03l.01.04a3.617,3.617,0,0,1,.01.57,2.528,2.528,0,0,0-.01.28" fill="#6582fd"/>
    </g>
  </g>
</svg>
