<svg xmlns="http://www.w3.org/2000/svg" width="42" height="44" viewBox="0 0 42 44">
    <defs>
        <clipPath id="k9iraoqnda">
            <path data-name="Rectangle 10698" transform="translate(20 527)" style="fill:#fff;opacity:0" d="M0 0h42v44H0z"/>
        </clipPath>
    </defs>
    <g data-name="Touch ID" transform="translate(-20 -527)" style="clip-path:url(#k9iraoqnda)">
        <g data-name="Group 71700">
            <path data-name="Path 62431" d="M15.838 21.581a14.233 14.233 0 0 1-3.743-.514 12.111 12.111 0 0 1-7.583-6.027l-.024-.048A18.414 18.414 0 0 1 2.648 8.7a7.594 7.594 0 0 1 .811-4.281 6.067 6.067 0 0 1 4.572-3.027A5.3 5.3 0 0 1 12.5 3a8.566 8.566 0 0 1 2.25 5.009 3.586 3.586 0 0 0 1.814 2.863 5.092 5.092 0 0 0 2.035.591 4.179 4.179 0 0 0 3.58-1.492c1.012-1.34 1.12-3.509.305-6.109a16.291 16.291 0 0 0-3.338-5.2 12.471 12.471 0 0 0-5.265-3.287l-.032-.011a12.5 12.5 0 0 0-6.6-.3 13.219 13.219 0 0 0-6.2 3.076 13.723 13.723 0 0 0-4.465 8.7l-.1.894-1.789-.2.1-.894A15.5 15.5 0 0 1-.168-3.186 15.038 15.038 0 0 1 6.881-6.7a14.326 14.326 0 0 1 7.551.361 14.252 14.252 0 0 1 6.005 3.749 18.115 18.115 0 0 1 3.729 5.812l.013.032.011.033c1.29 4.084.4 6.479-.575 7.769a5.93 5.93 0 0 1-5.09 2.206h-.043a6.88 6.88 0 0 1-2.8-.817 5.366 5.366 0 0 1-2.721-4.212 6.775 6.775 0 0 0-1.731-3.961 3.5 3.5 0 0 0-2.977-1.094 4.322 4.322 0 0 0-3.22 2.115c-1.091 1.971-.72 5.053 1.074 8.914a10.213 10.213 0 0 0 6.468 5.125 11.685 11.685 0 0 0 3.916.424l.895-.1.191 1.79-.895.1c-.031.003-.338.035-.844.035z" transform="translate(30.903 544.437)" style="fill:#696f8e"/>
            <path data-name="Path 62432" d="M28.118 1.458 27.5.807a19.047 19.047 0 0 0-3.818-2.845A21.031 21.031 0 0 0 13.4-4.919 21.277 21.277 0 0 0-.734.34l-.64.632-1.265-1.281L-2-.941a19.917 19.917 0 0 1 4.18-2.944 23.154 23.154 0 0 1 11.236-2.834A22.838 22.838 0 0 1 24.641-3.56 20.369 20.369 0 0 1 28.8-.436l.622.651z" transform="translate(27.61 536.821)" style="fill:#696f8e"/>
            <path data-name="Path 62433" d="m7.457 8.3-.867-.243A11.18 11.18 0 0 1 1.963 5.1 12.607 12.607 0 0 1-.869.236L-1.1-.633.633-1.1l.235.867a10.957 10.957 0 0 0 2.4 4.1A9.526 9.526 0 0 0 7.08 6.321l.867.243z" transform="rotate(6 -5308.092 538.191)" style="fill:#696f8e"/>
        </g>
    </g>
</svg>
