<svg xmlns="http://www.w3.org/2000/svg" xmlns:xlink="http://www.w3.org/1999/xlink" width="170" height="123" viewBox="0 0 170 123">
  <defs>
    <clipPath id="clip-path">
      <rect id="Rectangle_7261" data-name="Rectangle 7261" width="170" height="123" transform="translate(104 172)" fill="none"/>
    </clipPath>
  </defs>
  <g id="Update" transform="translate(-104 -172)" clip-path="url(#clip-path)">
    <g id="Group_71658" data-name="Group 71658">
      <path id="Path_62411" data-name="Path 62411" d="M-2.274,0S-61.393,40.014-30.991,70.514c21.251,21.32,95.256-12.871,132.838,0S119.334,122,119.334,122" transform="translate(145.183 176)" fill="none" stroke="#9da3c3" stroke-width="1.8" stroke-dasharray="3 4" opacity="0.327"/>
      <rect id="Rectangle_7260" data-name="Rectangle 7260" width="30" height="42" transform="translate(172 235)" fill="#161629"/>
      <g id="Group_71657" data-name="Group 71657" transform="translate(-1.329 -4.947)">
        <path id="Path_8750" data-name="Path 8750" d="M67.539,17.391V3H31.051L31,51.481H67.539s.04-1.171.04-2.975l-.04-23.392H64.207l-.018,23.094h-29.8V6.544H64.207V17.391Z" transform="translate(139.333 233.515)" fill="#9da3c3" stroke="#161629" stroke-width="1"/>
        <line id="Line_155" data-name="Line 155" x2="9.361" transform="translate(183.978 271.069)" fill="none" stroke="#9da3c3" stroke-width="2.3"/>
        <g id="Group_71656" data-name="Group 71656" transform="translate(182.59 250.442)">
          <path id="Path_62410" data-name="Path 62410" d="M259.509,408.363c0-2.127,0-9.577,0-9.577H261.5s0,6.924,0,8.824v.77c.916-.922,3.616-3.629,3.616-3.629l1.434,1.326s-3.99,4.014-5.448,5.446a.9.9,0,0,1-1.382.005c-1.388-1.358-5.231-5.226-5.231-5.226l1.4-1.365s2.694,2.715,3.484,3.52Z" transform="translate(-254.484 -398.787)" fill="#9da3c3"/>
        </g>
      </g>
      <rect id="Rectangle_7258" data-name="Rectangle 7258" width="40" height="32" transform="translate(119 163)" fill="#161629"/>
      <rect id="Rectangle_7259" data-name="Rectangle 7259" width="40" height="32" transform="translate(248 274)" fill="#161629"/>
    </g>
  </g>
</svg>
