<svg id="Update" xmlns="http://www.w3.org/2000/svg" xmlns:xlink="http://www.w3.org/1999/xlink" width="35.08" height="46.98" viewBox="0 0 35.08 46.98">
  <defs>
    <clipPath id="clip-path">
      <rect id="Rectangle_10804" data-name="Rectangle 10804" width="35.08" height="46.98" transform="translate(0 0)" fill="none"/>
    </clipPath>
  </defs>
  <g id="Group_71858" data-name="Group 71858" clip-path="url(#clip-path)">
    <path id="Path_62545" data-name="Path 62545" d="M35.08,44.75c0,.94-.02,1.71-.03,2.23H0L.05,0H35.04V12.89H33.21V2.04H1.89V45.2h31.3l.02-23.09h1.83Z" fill="#c0c5e0"/>
    <rect id="Rectangle_10803" data-name="Rectangle 10803" width="8.86" height="1.8" transform="translate(13.15 32.9)" fill="#c0c5e0"/>
    <path id="Path_62546" data-name="Path 62546" d="M23.29,20.47c-.74.73-4.02,4.04-5.32,5.31a.689.689,0,0,1-.98.09,1,1,0,0,1-.11-.1c-1.22-1.2-4.37-4.37-5.08-5.08l1.11-1.09c.56.57,2.66,2.7,3.35,3.4l.47.47V13.37h1.59V23.48l.35-.35c.79-.79,2.92-3.11,3.48-3.71Z" fill="#c0c5e0"/>
  </g>
</svg>
