<svg id="user" xmlns="http://www.w3.org/2000/svg" width="16.548" height="16.548" viewBox="0 0 16.548 16.548">
  <g id="Group_43536" data-name="Group 43536">
    <path id="Path_8773" data-name="Path 8773" d="M8.274,0A8.268,8.268,0,0,0,3.787,15.216a.633.633,0,0,0,.244.149A8.269,8.269,0,1,0,8.274,0Zm0,15.267a6.957,6.957,0,0,1-3.355-.86,3.154,3.154,0,0,1,3.342-2.748A3.153,3.153,0,0,1,11.6,14.422,6.948,6.948,0,0,1,8.274,15.267ZM6.307,8.037A1.968,1.968,0,1,1,8.274,10,1.97,1.97,0,0,1,6.307,8.037Zm6.462,5.586a4.3,4.3,0,0,0-2.655-2.912,3.25,3.25,0,1,0-3.685-.006,4.3,4.3,0,0,0-2.668,2.9,6.992,6.992,0,1,1,9.009.018Z" fill="#fff"/>
  </g>
</svg>
