<svg xmlns="http://www.w3.org/2000/svg" width="36" height="26" viewBox="0 0 36 26">
  <g id="visa" transform="translate(-771 -630)">
    <rect id="Rectangle_5643" data-name="Rectangle 5643" width="36" height="26" rx="3" transform="translate(771 630)" fill="#153ac3"/>
    <g id="MC_Card" data-name="MC Card" transform="translate(777.299 639.213)">
      <g id="Group_50614" data-name="Group 50614">
        <path id="polygon9" d="M435.4,118.059h-1.9l1.186-7.332h1.9Z" transform="translate(-425.262 -110.595)" fill="#fff"/>
        <path id="path11" d="M570.866,105.36a4.672,4.672,0,0,0-1.7-.312c-1.872,0-3.19,1-3.2,2.426-.016,1.053.944,1.638,1.661,1.989.734.359.983.593.983.913-.007.491-.593.718-1.138.718a3.774,3.774,0,0,1-1.779-.39l-.25-.117-.265,1.646a5.769,5.769,0,0,0,2.114.39c1.989,0,3.284-.983,3.3-2.5.008-.835-.5-1.474-1.591-2-.663-.335-1.069-.562-1.069-.9.008-.312.344-.632,1.092-.632a3.22,3.22,0,0,1,1.412.281l.172.078.258-1.583Z" transform="translate(-553.852 -105.048)" fill="#fff"/>
        <path id="path13" d="M793.455,115.461c.156-.421.757-2.051.757-2.051-.008.016.156-.429.249-.7l.133.632s.359,1.755.437,2.122Zm2.34-4.734h-1.467a.935.935,0,0,0-.991.608l-2.816,6.723h1.989l.4-1.1h2.434c.055.257.226,1.1.226,1.1h1.755l-1.529-7.332Z" transform="translate(-773.922 -110.595)" fill="#fff"/>
        <path id="path15" d="M170.516,110.727l-1.857,5-.2-1.014a5.612,5.612,0,0,0-2.621-3.073l1.7,6.412h2l2.98-7.324Z" transform="translate(-163.854 -110.595)" fill="#fff"/>
        <path id="path17" d="M84.247,110.727H81.2l-.031.148a6.343,6.343,0,0,1,4.6,3.838l-.663-3.37a.784.784,0,0,0-.858-.616Z" transform="translate(-81.166 -110.595)" fill="#faa61a"/>
      </g>
    </g>
  </g>
</svg>
