<svg xmlns="http://www.w3.org/2000/svg" width="33" height="33" viewBox="0 0 33 33">
  <g id="Withdrawal" transform="translate(-40 -575)">
    <path id="Rectangle_3142" data-name="Rectangle 3142" d="M13,0H33a0,0,0,0,1,0,0V33a0,0,0,0,1,0,0H0a0,0,0,0,1,0,0V13A13,13,0,0,1,13,0Z" transform="translate(40 575)" fill="#6582fd" opacity="0.1"/>
    <path id="Path_61038" data-name="Path 61038" d="M3.569,12.366H5.342V3.353L7.7,5.712l1.233-1.23L4.451,0,0,4.452l1.191,1.2L3.51,3.329l.059.032Z" transform="translate(47.723 589.756) rotate(-45)" fill="#848eff"/>
    <path id="Path_61060" data-name="Path 61060" d="M1.9,0H0V1.762H1.9Z" transform="translate(63.496 600.471) rotate(-135)" fill="#848eff"/>
  </g>
</svg>
