<svg xmlns="http://www.w3.org/2000/svg" width="16.2" height="16.201" viewBox="0 0 16.2 16.201">
  <g id="Error" transform="translate(0 0.001)">
    <g id="Group_51059" data-name="Group 51059">
      <g id="Group_51058" data-name="Group 51058">
        <g id="Group_51057" data-name="Group 51057">
          <path id="Path_62210" data-name="Path 62210" d="M8.1,0a8.215,8.215,0,0,1,7.484,5A7.678,7.678,0,0,1,16.2,8.1,8.1,8.1,0,1,1,8.1,0Z" transform="translate(0 16.199) rotate(-90)" fill="none"/>
          <path id="Path_62211" data-name="Path 62211" d="M8.1,1.3a6.8,6.8,0,1,0,6.8,6.8,6.432,6.432,0,0,0-.49-2.545L14.4,5.542A6.9,6.9,0,0,0,8.1,1.3M8.1,0a8.216,8.216,0,0,1,7.484,5A7.684,7.684,0,0,1,16.2,8.1,8.1,8.1,0,1,1,8.1,0Z" transform="translate(0 16.199) rotate(-90)" fill="#f45e8c"/>
        </g>
      </g>
    </g>
    <g id="Group_51061" data-name="Group 51061">
      <g id="Group_51060" data-name="Group 51060">
        <path id="Path_62212" data-name="Path 62212" d="M131.472,130.565l1.47-1.47a.641.641,0,0,0-.906-.906l-1.47,1.47-1.47-1.47a.641.641,0,1,0-.906.906l1.47,1.47-1.47,1.47a.641.641,0,1,0,.906.906l1.47-1.47,1.47,1.47a.641.641,0,0,0,.906-.906Z" transform="translate(-122.467 -122.466)" fill="#f45e8c"/>
      </g>
    </g>
  </g>
</svg>
