<svg xmlns="http://www.w3.org/2000/svg" width="16.571" height="16.549" viewBox="0 0 16.571 16.549">
  <g id="Edit" transform="translate(0.008 0.445)">
    <g id="Group_71838" data-name="Group 71838" transform="translate(0 -0.096)">
      <path id="Path_62528" data-name="Path 62528" d="M16.186,2.965a13.66,13.66,0,0,0-1.471-1.582L13.375.107a1.774,1.774,0,0,0-1.432-.525c-.5.1-.96.635-1.384,1.017L1.451,9.718A4.954,4.954,0,0,0,0,13.223v2.319c-.041.506.055.563.561.561h2.33a4.982,4.982,0,0,0,3.5-1.44l9.119-9.13c.667-.593,1.475-1.489.807-2.411M5.444,13.711A3.6,3.6,0,0,1,2.891,14.77H1.324V13.223a3.607,3.607,0,0,1,1.07-2.563L9.33,3.7l3.086,3.061ZM13.472,6,10.115,2.632l1.948-1.9,3.318,3.314" transform="translate(0 0.096)" fill="#fff"/>
    </g>
  </g>
</svg>
