<svg xmlns="http://www.w3.org/2000/svg" width="16.64" height="16.581" viewBox="0 0 16.64 16.581">
  <g id="Edit" transform="translate(-24.065 -2.484)">
    <g id="Group_3356" data-name="Group 3356" transform="translate(24.265 4.768)">
      <path id="Path_8176" data-name="Path 8176" d="M156.428,3.123a2.558,2.558,0,0,0-3.041.322l-8.624,8.624a5.106,5.106,0,0,0-1.5,3.626v2.192a.977.977,0,0,0,.978.978h2.192a5.107,5.107,0,0,0,3.627-1.5l8.615-8.615a2.284,2.284,0,0,0,.52-2.725A8.679,8.679,0,0,0,156.428,3.123ZM148.679,15.98a3.161,3.161,0,0,1-2.244.927h-1.213V15.695a3.161,3.161,0,0,1,.926-2.243l6.366-6.366,2.53,2.53Zm8.613-8.613-.864.864L153.9,5.7l.864-.864C155.461,4.139,157.989,6.67,157.292,7.368Z" transform="translate(-143.265 -4.768)" fill="#fff" stroke="#26294a" stroke-width="0.4"/>
    </g>
  </g>
</svg>
