<svg xmlns="http://www.w3.org/2000/svg" width="32" height="32" viewBox="0 0 32 32">
  <g id="Fee" transform="translate(-480 -570)">
    <rect id="Rectangle_6316" data-name="Rectangle 6316" width="32" height="32" rx="3" transform="translate(480 570)" fill="#8f9eb5" opacity="0.08"/>
    <path id="Union_24" data-name="Union 24" d="M-2649.833,3767.665a4.166,4.166,0,0,0-2.624,1.335,3.594,3.594,0,0,0-2.568-1.335,3.374,3.374,0,0,0-2.5,1.335,4.349,4.349,0,0,0-2.718-1.335A4.5,4.5,0,0,0-2663,3769v-18h-2v-1h20v1h-2v18A5.027,5.027,0,0,0-2649.833,3767.665Zm-2.6-.026a4.437,4.437,0,0,1,2.6-.974,4.3,4.3,0,0,1,1.833.461V3751h-14v16.086a4.151,4.151,0,0,1,1.758-.421,4.644,4.644,0,0,1,2.664.97,4.035,4.035,0,0,1,2.554-.97A4.206,4.206,0,0,1-2652.428,3767.639Zm-5.571-7.553V3759h6v1.088Zm0-4V3755h6v1.089Z" transform="translate(3151 -3173)" fill="#8f9eb5"/>
  </g>
</svg>
