<svg id="Verify" xmlns="http://www.w3.org/2000/svg" width="16.199" height="16.199" viewBox="0 0 16.199 16.199">
  <g id="Path_7645" data-name="Path 7645" transform="translate(0 16.199) rotate(-90)" fill="none">
    <path d="M8.1,0a8.215,8.215,0,0,1,7.484,5A7.678,7.678,0,0,1,16.2,8.1,8.1,8.1,0,1,1,8.1,0Z" stroke="none"/>
    <path d="M 8.099609375 1.300000190734863 C 4.350289344787598 1.300000190734863 1.299999237060547 4.350170135498047 1.299999237060547 8.099340438842773 C 1.299999237060547 11.8485107421875 4.350289344787598 14.89868068695068 8.099609375 14.89868068695068 C 11.8489294052124 14.89868068695068 14.89921951293945 11.8485107421875 14.89921951293945 8.099340438842773 C 14.89921951293945 6.982900619506836 14.635329246521 6.030640602111816 14.40933990478516 5.554409980773926 L 14.40356922149658 5.542070388793945 C 13.17703914642334 2.885820388793945 10.82041931152344 1.300000190734863 8.099609375 1.300000190734863 M 8.099609375 0 C 11.35613918304443 0 14.16379928588867 1.92180061340332 15.58381938934326 4.997090339660645 C 15.9309196472168 5.728560447692871 16.19921875 6.882620811462402 16.19921875 8.099340438842773 C 16.19921875 12.57248020172119 12.57289886474609 16.19868087768555 8.099609375 16.19868087768555 C 3.62631893157959 16.19868087768555 0 12.57248020172119 0 8.099340438842773 C 0 3.626200675964355 3.62631893157959 0 8.099609375 0 Z" stroke="none" fill="#6582fd"/>
  </g>
  <g id="Group_2246" data-name="Group 2246" transform="translate(7.085 4.897)">
    <path id="Path_7646" data-name="Path 7646" d="M1.011.415h.137a1.059,1.059,0,0,1,.986.825V3.274a1.037,1.037,0,0,1-.986.8H1.011A1.068,1.068,0,0,1,0,3.274V1.24A1.091,1.091,0,0,1,1.011.415Z" transform="translate(0 -0.415)" fill="#6582fd"/>
    <ellipse id="Ellipse_81" data-name="Ellipse 81" cx="1.067" cy="0.993" rx="1.067" ry="0.993" transform="translate(0 4.917)" fill="#6582fd"/>
  </g>
</svg>
