<svg xmlns="http://www.w3.org/2000/svg" width="35.485" height="37.485" viewBox="0 0 35.485 37.485">
  <g id="wallet" transform="translate(0.35 0.35)">
    <g id="Group_43591" data-name="Group 43591">
      <g id="Group_43590" data-name="Group 43590">
        <rect id="Rectangle_708" data-name="Rectangle 708" width="2.395" height="2.395" transform="translate(26.344 21.697)" fill="#939abf" stroke="#1e213f" stroke-width="0.7"/>
        <path id="Path_9460" data-name="Path 9460" d="M30.437,8.7V0h-25A5.442,5.442,0,0,0,0,5.435V31.35a5.442,5.442,0,0,0,5.435,5.435h29.35V8.7Zm-25-6.522H28.263V8.7H5.435a3.261,3.261,0,0,1,0-6.522ZM32.611,27H23.385V18.48h9.226Zm0-10.7H21.12v12.87H32.611v5.435H5.435A3.261,3.261,0,0,1,2.174,31.35V9.755A5.379,5.379,0,0,0,5.435,10.87H32.611Z" fill="#939abf" stroke="#1e213f" stroke-width="0.7"/>
      </g>
    </g>
  </g>
</svg>
