<svg id="Wallet" xmlns="http://www.w3.org/2000/svg" xmlns:xlink="http://www.w3.org/1999/xlink" width="37.38" height="38.39" viewBox="0 0 37.38 38.39">
  <defs>
    <clipPath id="clip-path">
      <rect id="Rectangle_10802" data-name="Rectangle 10802" width="37.38" height="38.39" fill="none"/>
    </clipPath>
  </defs>
  <g id="Group_71856" data-name="Group 71856" clip-path="url(#clip-path)">
    <path id="Path_62544" data-name="Path 62544" d="M33.03,8.71V0H5.23a4.754,4.754,0,0,0-1.2.15A5.23,5.23,0,0,0,.15,4.04,4.754,4.754,0,0,0,0,5.24V33.15a4.833,4.833,0,0,0,.15,1.21,5.2,5.2,0,0,0,3.88,3.88,4.754,4.754,0,0,0,1.2.15H37.38V8.71ZM5.23,1.78H31.26V8.71H5.23a3.465,3.465,0,0,1,0-6.93M35.61,28H27.98V19.08h7.63Zm0-10.7H26.12V29.77h9.49v6.84H5.23a3.472,3.472,0,0,1-3.46-3.45v-24l.32.24a5.18,5.18,0,0,0,3.14,1.07H35.61Z" fill="#c0c5e0"/>
  </g>
</svg>
