<svg xmlns="http://www.w3.org/2000/svg" width="50.379" height="44.686" viewBox="0 0 50.379 44.686">
  <g id="warning" transform="translate(-229.483 -337.047)">
    <path id="Path_61475" data-name="Path 61475" d="M254.588,381.23q-10.531,0-21.061,0a3.347,3.347,0,0,1-3.5-2.85,3.456,3.456,0,0,1,.524-2.386q4.44-7.67,8.866-15.349,6.1-10.566,12.2-21.132a3.372,3.372,0,0,1,4.623-1.4,3.738,3.738,0,0,1,1.433,1.514q4.737,8.22,9.484,16.434,5.763,9.984,11.525,19.97a3.376,3.376,0,0,1-1.06,4.711,3.594,3.594,0,0,1-1.974.491q-8.511-.01-17.022,0Zm.033-2.889H275.39a4.49,4.49,0,0,0,.48-.007.452.452,0,0,0,.407-.679,3.828,3.828,0,0,0-.228-.422l-20.123-34.855c-.272-.471-.54-.945-.82-1.412-.3-.507-.676-.511-.983-.021-.051.081-.1.165-.145.249l-20.842,36.1a2.923,2.923,0,0,0-.206.379.446.446,0,0,0,.393.654,3.842,3.842,0,0,0,.48.01Z" transform="translate(0 0)" fill="#c3c6d5" stroke="#1f1f35" stroke-width="1"/>
    <path id="Path_61476" data-name="Path 61476" d="M353.43,407.551c0,2.724,0,3.525,0,6.249a1.4,1.4,0,0,1-.781,1.332,1.359,1.359,0,0,1-1.458-.087,1.557,1.557,0,0,1-.651-1.416c.006-3.91,0-.924,0-4.834,0-1.49-.008-2.981,0-4.47a1.452,1.452,0,0,1,1.243-1.483,1.42,1.42,0,0,1,1.579,1.036,2.609,2.609,0,0,1,.058.666C353.432,407.2,353.43,404.891,353.43,407.551Z" transform="translate(-97.366 -48.791)" fill="#c3c6d5" stroke="#1f1f35" stroke-width="1"/>
    <path id="Path_61477" data-name="Path 61477" d="M352.5,512.47a1.74,1.74,0,0,1-1.742,1.743,1.766,1.766,0,0,1-1.74-1.756,1.739,1.739,0,0,1,1.753-1.731A1.715,1.715,0,0,1,352.5,512.47Z" transform="translate(-96.134 -141.672)" fill="#c3c6d5" stroke="#1f1f35" stroke-width="1"/>
  </g>
</svg>
