<svg xmlns="http://www.w3.org/2000/svg" width="120" height="45" viewBox="0 0 120 45">
  <g id="Appstore" transform="translate(-211 -545)">
    <rect id="Rectangle_3220" data-name="Rectangle 3220" width="120" height="45" rx="5" transform="translate(211 545)" fill="#6582fd" opacity="0.2"/>
    <text id="App_Store" data-name="App Store" transform="translate(252.73 573)" fill="#e4e7fa" font-size="13" font-family="Ubuntu"><tspan x="0" y="0">App Store</tspan></text>
    <g id="Apple" transform="translate(230.327 558.43)">
      <path id="XMLID_229_" d="M28.6,74.55c-1.445,2.507-.526,6.312,1.071,8.619.8,1.153,1.6,2.189,2.711,2.189h.063a3.347,3.347,0,0,0,1.258-.335,3.445,3.445,0,0,1,1.49-.353,3.24,3.24,0,0,1,1.419.342,3.006,3.006,0,0,0,1.359.326c1.246-.023,2.011-1.14,2.685-2.126a9.424,9.424,0,0,0,1.177-2.41l0-.015a.14.14,0,0,0-.074-.172l-.01,0a3.571,3.571,0,0,1-2.164-3.27,3.676,3.676,0,0,1,1.737-3.073l.014-.009a.14.14,0,0,0,.04-.2A4.042,4.042,0,0,0,38.2,72.334c-.09-.009-.184-.014-.277-.014a5.542,5.542,0,0,0-2,.5,3.208,3.208,0,0,1-.956.286,3.128,3.128,0,0,1-.989-.289,4.79,4.79,0,0,0-1.743-.443h-.044A4.273,4.273,0,0,0,28.6,74.55Z" transform="translate(-27.875 -68.268)" fill="#fcfcff"/>
      <path id="XMLID_230_" d="M152.734,0a3.9,3.9,0,0,0-2.576,1.321,3.656,3.656,0,0,0-.925,2.711.14.14,0,0,0,.128.121c.06,0,.12.007.181.007a3.3,3.3,0,0,0,2.431-1.247,3.854,3.854,0,0,0,.906-2.789A.141.141,0,0,0,152.734,0Z" transform="translate(-142.412 0)" fill="#fcfcff"/>
    </g>
  </g>
</svg>
