<svg xmlns="http://www.w3.org/2000/svg" xmlns:xlink="http://www.w3.org/1999/xlink" width="195" height="138" viewBox="0 0 195 138">
  <defs>
    <clipPath id="clip-path">
      <rect id="Rectangle_824" data-name="Rectangle 824" width="195" height="138" transform="translate(102 124)" fill="none"/>
    </clipPath>
  </defs>
  <g id="Digits" transform="translate(-102 -124)" clip-path="url(#clip-path)">
    <path id="Path_53866" data-name="Path 53866" d="M169.573,0V107.046H0V0" transform="translate(128.988 123.872) rotate(7)" fill="#3c4a6e" opacity="0.408"/>
    <rect id="Rectangle_823" data-name="Rectangle 823" width="171.274" height="107.046" transform="translate(102 155.102)" fill="#4a6dff"/>
    <line id="Line_195" data-name="Line 195" y2="15.799" transform="translate(253.895 177)" fill="none" stroke="#fff" stroke-width="2"/>
    <line id="Line_196" data-name="Line 196" y2="11.268" transform="translate(248.825 179.254)" fill="none" stroke="#fff" stroke-width="2"/>
    <line id="Line_197" data-name="Line 197" y2="2.254" transform="translate(243.754 183.773)" fill="none" stroke="#fff" stroke-width="2"/>
    <g id="Group_49724" data-name="Group 49724" transform="translate(122.293 174.563)">
      <g id="Group_49691" data-name="Group 49691">
        <rect id="Rectangle_818" data-name="Rectangle 818" width="21.409" height="21.409" fill="#ffe08d"/>
      </g>
    </g>
    <path id="Union_2" data-name="Union 2" d="M0,0H9.015V7.888H0Z" transform="translate(128.487 181.888)" fill="none" stroke="#4a6dff" stroke-width="2"/>
    <path id="Path_53879" data-name="Path 53879" d="M-.8,0H3.123L5.815,1.082" transform="translate(122.755 180.806)" fill="none" stroke="#4a6dff" stroke-width="2"/>
    <path id="Path_53882" data-name="Path 53882" d="M5.778,0h-3.6L-.51,1.082" transform="translate(138.015 180.806)" fill="none" stroke="#4a6dff" stroke-width="2"/>
    <path id="Path_53880" data-name="Path 53880" d="M-.875,1.082H3.133L5.824,0" transform="translate(122.746 189.775)" fill="none" stroke="#4a6dff" stroke-width="2"/>
    <path id="Path_53881" data-name="Path 53881" d="M5.778,1.082h-3.6L-.51,0" transform="translate(138.015 189.775)" fill="none" stroke="#4a6dff" stroke-width="2"/>
    <path id="Path_53883" data-name="Path 53883" d="M-.152,0h6.38" transform="translate(122.263 185.832)" fill="none" stroke="#4a6dff" stroke-width="2"/>
    <line id="Line_205" data-name="Line 205" x1="6.208" transform="translate(137.584 185.832)" fill="none" stroke="#4a6dff" stroke-width="2"/>
    <line id="Line_206" data-name="Line 206" y2="7.888" transform="translate(132.998 174)" fill="none" stroke="#4a6dff" stroke-width="2"/>
    <line id="Line_207" data-name="Line 207" y2="6.761" transform="translate(132.998 189.212)" fill="none" stroke="#4a6dff" stroke-width="2"/>
    <text id="Order_History" data-name="Order History" transform="translate(120.029 240.738)" fill="#fff" font-size="12"  font-weight="600" letter-spacing="0.026em" opacity="0.5"><tspan x="0" y="0">Name Surname</tspan></text>
    <path id="Order_History-2" data-name="Order History" d="M45.056.131V-5.632A1.731,1.731,0,0,1,47.014-7.59h1.76a1.731,1.731,0,0,1,1.958,1.958V.131a1.731,1.731,0,0,1-1.958,1.958h-1.76A1.731,1.731,0,0,1,45.056.131ZM46.32.242a.624.624,0,0,0,.707.706h1.735a.624.624,0,0,0,.706-.706V-5.743a.624.624,0,0,0-.706-.706H47.027a.624.624,0,0,0-.707.706ZM53.483.131V-5.632A1.731,1.731,0,0,1,55.442-7.59H57.2A1.731,1.731,0,0,1,59.16-5.632V.131A1.731,1.731,0,0,1,57.2,2.089h-1.76A1.731,1.731,0,0,1,53.483.131Zm1.264.112a.624.624,0,0,0,.707.706h1.735A.624.624,0,0,0,57.9.242V-5.743a.624.624,0,0,0-.707-.706H55.454a.624.624,0,0,0-.707.706Zm10-.112V-5.632A1.731,1.731,0,0,1,66.711-7.59h1.76a1.731,1.731,0,0,1,1.958,1.958V.131a1.731,1.731,0,0,1-1.958,1.958h-1.76A1.731,1.731,0,0,1,64.752.131Zm1.264.112a.624.624,0,0,0,.707.706h1.735a.624.624,0,0,0,.706-.706V-5.743a.624.624,0,0,0-.706-.706H66.723a.624.624,0,0,0-.707.706ZM73.18.131V-5.632A1.731,1.731,0,0,1,75.138-7.59H76.9a1.731,1.731,0,0,1,1.958,1.958V.131A1.731,1.731,0,0,1,76.9,2.089h-1.76A1.731,1.731,0,0,1,73.18.131Zm1.264.112a.624.624,0,0,0,.706.706h1.735a.624.624,0,0,0,.707-.706V-5.743a.624.624,0,0,0-.707-.706H75.15a.624.624,0,0,0-.706.706ZM81.607.131V-5.632A1.731,1.731,0,0,1,83.565-7.59h1.76a1.731,1.731,0,0,1,1.958,1.958V.131a1.731,1.731,0,0,1-1.958,1.958h-1.76A1.731,1.731,0,0,1,81.607.131Zm1.264.112a.624.624,0,0,0,.706.706h1.735A.624.624,0,0,0,86.02.242V-5.743a.624.624,0,0,0-.707-.706H83.578a.624.624,0,0,0-.706.706ZM90.034.131V-5.632A1.731,1.731,0,0,1,91.993-7.59h1.76a1.731,1.731,0,0,1,1.958,1.958V.131a1.731,1.731,0,0,1-1.958,1.958h-1.76A1.731,1.731,0,0,1,90.034.131ZM91.3.242a.624.624,0,0,0,.706.706H93.74a.624.624,0,0,0,.707-.706V-5.743a.624.624,0,0,0-.707-.706H92.005a.624.624,0,0,0-.706.706Z" transform="translate(126.869 219.738)" fill="#fff" opacity="0.5"/>
    <path id="Order_History-3" data-name="Order History" d="M.66.131V-5.632A1.731,1.731,0,0,1,2.618-7.59h1.76A1.731,1.731,0,0,1,6.337-5.632V.131A1.731,1.731,0,0,1,4.378,2.089H2.618A1.731,1.731,0,0,1,.66.131ZM1.924.242a.624.624,0,0,0,.707.706H4.366A.624.624,0,0,0,5.073.242V-5.743a.624.624,0,0,0-.707-.706H2.631a.624.624,0,0,0-.707.706ZM7.961.131V-5.632A1.731,1.731,0,0,1,9.919-7.59h1.76a1.731,1.731,0,0,1,1.958,1.958V.131a1.731,1.731,0,0,1-1.958,1.958H9.919A1.731,1.731,0,0,1,7.961.131ZM9.225.242a.624.624,0,0,0,.707.706h1.735a.624.624,0,0,0,.707-.706V-5.743a.624.624,0,0,0-.707-.706H9.931a.624.624,0,0,0-.707.706ZM15.261.131V-5.632A1.731,1.731,0,0,1,17.219-7.59h1.76a1.731,1.731,0,0,1,1.958,1.958V.131a1.731,1.731,0,0,1-1.958,1.958h-1.76A1.731,1.731,0,0,1,15.261.131Zm1.264.112a.624.624,0,0,0,.707.706h1.735a.624.624,0,0,0,.707-.706V-5.743a.624.624,0,0,0-.707-.706H17.232a.624.624,0,0,0-.707.706ZM22.562.131V-5.632A1.731,1.731,0,0,1,24.52-7.59h1.76a1.731,1.731,0,0,1,1.958,1.958V.131A1.731,1.731,0,0,1,26.28,2.089H24.52A1.731,1.731,0,0,1,22.562.131Zm1.264.112a.624.624,0,0,0,.707.706h1.735a.624.624,0,0,0,.707-.706V-5.743a.624.624,0,0,0-.707-.706H24.532a.624.624,0,0,0-.707.706ZM36.084.131V-5.632A1.731,1.731,0,0,1,38.043-7.59H39.8a1.731,1.731,0,0,1,1.958,1.958V.131A1.731,1.731,0,0,1,39.8,2.089h-1.76A1.731,1.731,0,0,1,36.084.131Zm1.264.112a.624.624,0,0,0,.707.706H39.79A.624.624,0,0,0,40.5.242V-5.743a.624.624,0,0,0-.707-.706H38.055a.624.624,0,0,0-.707.706ZM43.385.131V-5.632A1.731,1.731,0,0,1,45.343-7.59H47.1a1.731,1.731,0,0,1,1.958,1.958V.131A1.731,1.731,0,0,1,47.1,2.089h-1.76A1.731,1.731,0,0,1,43.385.131Zm1.264.112a.624.624,0,0,0,.706.706h1.735A.624.624,0,0,0,47.8.242V-5.743a.624.624,0,0,0-.706-.706H45.356a.624.624,0,0,0-.706.706ZM106.933.131V-5.632a1.731,1.731,0,0,1,1.958-1.958h1.76a1.731,1.731,0,0,1,1.958,1.958V.131a1.731,1.731,0,0,1-1.958,1.958h-1.76A1.731,1.731,0,0,1,106.933.131ZM108.2.242a.624.624,0,0,0,.707.706h1.735a.624.624,0,0,0,.706-.706V-5.743a.624.624,0,0,0-.706-.706H108.9a.624.624,0,0,0-.707.706Zm6.036-.112V-5.632a1.731,1.731,0,0,1,1.958-1.958h1.76a1.731,1.731,0,0,1,1.958,1.958V.131a1.731,1.731,0,0,1-1.958,1.958h-1.76A1.731,1.731,0,0,1,114.233.131ZM115.5.242a.624.624,0,0,0,.707.706h1.735a.624.624,0,0,0,.707-.706V-5.743a.624.624,0,0,0-.707-.706H116.2a.624.624,0,0,0-.707.706Zm6.036-.112V-5.632a1.731,1.731,0,0,1,1.958-1.958h1.76a1.731,1.731,0,0,1,1.958,1.958V.131a1.731,1.731,0,0,1-1.958,1.958h-1.76A1.731,1.731,0,0,1,121.534.131ZM122.8.242a.624.624,0,0,0,.707.706h1.735a.624.624,0,0,0,.707-.706V-5.743a.624.624,0,0,0-.707-.706H123.5a.624.624,0,0,0-.707.706Zm6.036-.112V-5.632a1.731,1.731,0,0,1,1.958-1.958h1.76a1.731,1.731,0,0,1,1.958,1.958V.131a1.731,1.731,0,0,1-1.958,1.958h-1.76A1.731,1.731,0,0,1,128.834.131ZM130.1.242a.624.624,0,0,0,.706.706h1.735a.624.624,0,0,0,.707-.706V-5.743a.624.624,0,0,0-.707-.706h-1.735a.624.624,0,0,0-.706.706Z" transform="translate(120.113 219.738)" fill="#fff" stroke="#fff" stroke-width="0.2"/>
  </g>
</svg>
