<svg xmlns="http://www.w3.org/2000/svg" width="42" height="44" viewBox="0 0 42 44">
    <defs>
        <clipPath id="qpuxaisxva">
            <path data-name="Rectangle 10750" style="fill:#696f8e" d="M0 0h33.72v29.27H0z"/>
        </clipPath>
    </defs>
    <g data-name="Group 71768">
        <g data-name="Group 71767" style="clip-path:url(#qpuxaisxva)" transform="translate(3 5)">
            <path data-name="Path 62485" d="M33.72 2.3V.03L.01 0 0 29.27h33.72V23.5h-1.81l-.01 1.29c-.01 1.33-.01 2.13-.01 2.17v.6H1.71v-1.64c-.03-16.13 0-16.29.02-16.37l.02-.75.81.32c.1.04.19.09.27.13l.06.03.06.03a59.143 59.143 0 0 0 6.46 2.76l.08.03h.03l.19.08a60.875 60.875 0 0 1 6.6 2.82 1.1 1.1 0 0 0 .55.16 1.139 1.139 0 0 0 .57-.16 60.787 60.787 0 0 1 6.59-2.83l.35-.13a59.93 59.93 0 0 0 6.4-2.72.746.746 0 0 1 .12-.07l.01-.01.05-.02.01-.01.03-.02a1.009 1.009 0 0 0 .15-.07l.83-.42.03.94c0 .04 0 .72-.02 3.66h1.74V7.01h-2.3c-.03.02-.05.03-.08.05a67.538 67.538 0 0 1-6.88 2.96l-.1.05a64.482 64.482 0 0 0-6.94 2.99 1.194 1.194 0 0 1-.55.15 1.333 1.333 0 0 1-.56-.15h-.01a62.759 62.759 0 0 0-6.95-3l-.03-.02-.1-.03a69.934 69.934 0 0 1-6.9-2.97 1.039 1.039 0 0 1-.5-.89V1.69h.6l29.47.01v.6z" style="fill:#696f8e"/>
        </g>
    </g>
    <path data-name="Rectangle 10751" style="fill:none" d="M0 0h42v44H0z"/>
</svg>
