<svg xmlns="http://www.w3.org/2000/svg" width="49.727" height="43.284" viewBox="0 0 49.727 43.284">
  <path id="E-mail_Authentication" data-name="E-mail Authentication" d="M22064.916,15180.476H22017l.2-41.479,47.719.28,0,41.2Zm-3.32-14.744v14.249h2.744v-14.249Zm-40.59-12.771c-.057.159-.021,22.588-.021,23.543h39.773c0-.217.17-23.367.16-23.551l-.174.093c-.111.059-.2.107-.293.157a84.591,84.591,0,0,1-9.135,3.857,84.128,84.128,0,0,0-9.187,3.885,2.263,2.263,0,0,1-2.326,0,83.911,83.911,0,0,0-9.2-3.889,84.6,84.6,0,0,1-9.125-3.854c-.1-.052-.189-.1-.3-.155Zm.139-10.041v5.139s-.025.446.266.6a92.9,92.9,0,0,0,9.516,4.062,92.142,92.142,0,0,1,9.662,4.136.776.776,0,0,0,.379.114.762.762,0,0,0,.363-.106,91.309,91.309,0,0,1,9.639-4.126,92.6,92.6,0,0,0,9.469-4.039c.33-.178.32-.707.32-.712v-5.046Z" transform="translate(-22016.094 -15138.091)" fill="#838bb2" stroke="#1f1f35" stroke-width="1.8"/>
</svg>
