<svg xmlns="http://www.w3.org/2000/svg" width="44.838" height="37.302" viewBox="0 0 44.838 37.302">
  <g id="Email" transform="translate(-164.701 -232.584)">
    <path id="E-mail_Authentication" data-name="E-mail Authentication" d="M42.258,37.3H0V0H44.838V24.414h-1.9l0-13-19.354,7.21a2.384,2.384,0,0,1-.979.2,2.211,2.211,0,0,1-.957-.2L1.9,10.244l.01,25.167L42.258,35.4v1.9ZM2.057,1.9l.01,6.175,20.182,8.5a.745.745,0,0,0,.361.106.72.72,0,0,0,.346-.1L42.947,9.1l-.01-7.187Z" transform="translate(164.701 232.585)" fill="#c0c5e0"/>
  </g>
</svg>
