<svg xmlns="http://www.w3.org/2000/svg" width="42" height="44" viewBox="0 0 42 44">
  <g id="E-mail_Authentication" data-name="E-mail Authentication" transform="translate(-42 -377)">
    <rect id="Rectangle_7263" data-name="Rectangle 7263" width="42" height="44" transform="translate(42 377)" fill="#fff" opacity="0"/>
    <path id="E-mail_Authentication-2" data-name="E-mail Authentication" d="M22051.916,15169.472H22017l.145-30.472,34.777.205-.006,30.266Zm-32-20.21c-.021.108-.027,6.031-.01,16.259v1.035h28.982c0-.034.006-.885.016-2.172l.014-2.08.033-4.7c.029-4.263.057-8.289.055-8.354-.045.022-.09.045-.129.066l-.043.022-.064.034-.107.06a59.1,59.1,0,0,1-6.48,2.763l-.156.061-.156.06-.016.006a59.8,59.8,0,0,0-6.541,2.8,1.8,1.8,0,0,1-.852.232,1.759,1.759,0,0,1-.842-.232,59.818,59.818,0,0,0-6.535-2.8l-.139-.054-.027-.006-.121-.047a60.36,60.36,0,0,1-6.531-2.787l-.053-.026-.061-.031C22020.078,15149.341,22020,15149.3,22019.916,15149.262Zm29.582,4.238h0v9h2v-9Zm-29.477-11.622h0v3.78a.5.5,0,0,0,.193.442,66.665,66.665,0,0,0,6.844,2.947l.016.006.064.024.027.011a65.444,65.444,0,0,1,7.023,3.033.6.6,0,0,0,.277.083.539.539,0,0,0,.266-.077,65.45,65.45,0,0,1,7.006-3.024l.021-.009.039-.017.01,0a67.348,67.348,0,0,0,6.848-2.946.445.445,0,0,0,.2-.28v.164h2.762v-3.514h-2.729v-.6l-28.867-.017Z" transform="translate(-21973.5 -14756.5)" fill="#696f8e" stroke="#1f1f35" stroke-width="1.2"/>
  </g>
</svg>
