<svg xmlns="http://www.w3.org/2000/svg" width="24.003" height="15.62" viewBox="0 0 24.003 15.62">
  <g id="hide" transform="translate(-151.597 -404.569)">
    <path id="Path_61129" data-name="Path 61129" d="M163.17,419.89a10.787,10.787,0,0,1-5.036-1.587,20.687,20.687,0,0,1-6-5.346.847.847,0,0,1-.01-1.136,19.54,19.54,0,0,1,7.381-6.045,9.841,9.841,0,0,1,8.783.274,20.121,20.121,0,0,1,6.781,5.766.843.843,0,0,1,.011,1.116,19.543,19.543,0,0,1-7.467,6.09A10.616,10.616,0,0,1,163.17,419.89Zm10.3-7.486a1.3,1.3,0,0,0-.074-.113,19.492,19.492,0,0,0-5.212-4.431,9.567,9.567,0,0,0-4.214-1.308,8.7,8.7,0,0,0-4.155.9,16.756,16.756,0,0,0-4.669,3.385c-.492.487-.954,1.01-1.423,1.51a.781.781,0,0,0,.056.107c.149.172.3.346.449.514a17.965,17.965,0,0,0,5.592,4.348,8.209,8.209,0,0,0,6.093.553C168.976,416.921,171.32,414.837,173.471,412.4Z" transform="translate(0 0)" fill="#696f8e" stroke="#161629" stroke-width="0.6"/>
    <path id="Path_61130" data-name="Path 61130" d="M236.007,436.89a4.175,4.175,0,1,1-4,4.186A4.088,4.088,0,0,1,236.007,436.89Zm-2.408,4.166a2.394,2.394,0,1,0,2.4-2.5A2.451,2.451,0,0,0,233.6,441.056Z" transform="translate(-72.393 -28.679)" fill="#696f8e" stroke="#161629" stroke-width="0.6"/>
  </g>
</svg>
