<svg xmlns="http://www.w3.org/2000/svg" width="42" height="44" viewBox="0 0 42 44">
  <g id="Choose_Language" data-name="Choose Language" transform="translate(-40 -433)">
    <rect id="Rectangle_7270" data-name="Rectangle 7270" width="42" height="44" transform="translate(40 433)" fill="#fff" opacity="0"/>
    <g id="language" transform="translate(2.5 20)">
      <text id="A" transform="translate(46.791 440.743)" fill="#696f8e" font-size="11" font-weight="500"><tspan x="0" y="0">A</tspan></text>
      <path id="Subtraction_11" data-name="Subtraction 11" d="M3.054,32.675v0l2.078-4.556H0V8.518H10.353V0L33.289.015h.7V6.166h-1.37v-4.8H11.7V8.518h8.236c0,.007,0,.058,0,.148.017,2.746.049,9.385-.018,11.7h3.347L28.425,25.4V20.368h4.189v-7.2h1.37v8.548H29.64v6.4l-6.923-6.4h-2.8l-.068,6.4h-6.02L3.056,32.674Zm3.19-5.906H7.353L5.777,30.078c6.925-3.078,7.9-3.317,8.035-3.317a.03.03,0,0,1,.021.006l4.729,0,.012-7.334V9.866H1.348l0,16.9Z" transform="translate(40.5 418.334)" fill="#696f8e" stroke="#696f8e" stroke-width="0.4"/>
    </g>
  </g>
</svg>
