<svg xmlns="http://www.w3.org/2000/svg" width="38" height="38" viewBox="0 0 38 38">
  <g id="Log_out" data-name="Log out" transform="translate(-309 -19)">
    <path id="Path_61953" data-name="Path 61953" d="M19,0A19,19,0,1,1,0,19,19,19,0,0,1,19,0Z" transform="translate(309 19)" fill="#6582fd"/>
    <path id="Path_61951" data-name="Path 61951" d="M80.043,34.831H81.5V36.5H91.747V23.494H81.517v2.62H80.043v-.256c0-2.322,0-.625,0-2.946,0-.644.265-.911.9-.911H92.322c.641,0,.906.265.906.909,0,7.3,0,6.9,0,14.193,0,.628-.268.9-.893.9h-11.4c-.624,0-.893-.271-.893-.9,0-2.329,0,.309,0-2.021Z" transform="translate(241.773 8)" fill="#fff"/>
    <path id="Path_61952" data-name="Path 61952" d="M37.909,84.61l-.97.969c.946.944,1.052,1.047,2.039,2.03H30v1.371h8.949l-2.013,2.008.985.984c.016-.015.069-.059.117-.106,1.282-1.279,1.71-1.706,2.991-2.986a.706.706,0,0,0,.007-1.156c-1.286-1.285-1.72-1.717-3.006-3-.044-.044-.091-.085-.121-.113" transform="translate(289 -50.284)" fill="#fff"/>
  </g>
</svg>
