<svg xmlns="http://www.w3.org/2000/svg" width="42" height="44" viewBox="0 0 42 44">
  <g id="Receive_Notifications_" data-name="Receive Notifications " transform="translate(-40 -366)">
    <rect id="Rectangle_7269" data-name="Rectangle 7269" width="42" height="44" transform="translate(40 366)" fill="#fff" opacity="0"/>
    <path id="Receive_Notifications_2" data-name="Receive Notifications " d="M22033.551,15172.843a5.1,5.1,0,0,1-4.875-4.272h-8.361v-6.037l2.3-1.826-.033-6.579a12.2,12.2,0,0,1,2.885-7.938,10.658,10.658,0,0,1,7.059-3.76v-3.2h1.986v3.2a10.639,10.639,0,0,1,6.82,3.492,12.146,12.146,0,0,1,3.094,7.42h-1.99a9.887,9.887,0,0,0-2.84-6.264,8.594,8.594,0,0,0-6.08-2.562c-4.934,0-8.947,4.313-8.947,9.612l.039,7.542-2.3,1.478a.688.688,0,0,1,0,.077,31.308,31.308,0,0,1,.035,3.216h22.107c-.084-.521,0-3.271,0-3.293l-1.953-1.743,0-.774h1.957v.077l2.025,1.826v6.037h-8.051A5.1,5.1,0,0,1,22033.551,15172.843Zm-2.811-4.272a2.914,2.914,0,0,0,5.617,0Zm16.285-19.224h0a13.958,13.958,0,0,0-.8-2.7l2.01-.725a15.854,15.854,0,0,1,.887,3.033l-2.1.393Zm-27.3-.055h0l-2.086-.465a16.06,16.06,0,0,1,6.447-9.623l1.229,1.748a13.879,13.879,0,0,0-5.588,8.339Zm25.752-4.194h0a13.873,13.873,0,0,0-3.75-4.277l1.289-1.7a16.031,16.031,0,0,1,4.285,4.868l-1.824,1.114Z" transform="translate(-21973.137 -14770.232)" fill="#696f8e" stroke="#1f1f35" stroke-width="0.4"/>
  </g>
</svg>
