<svg xmlns="http://www.w3.org/2000/svg" width="120" height="45" viewBox="0 0 120 45">
  <g id="Playstore" transform="translate(-211 -545)">
    <rect id="Rectangle_3220" data-name="Rectangle 3220" width="120" height="45" rx="5" transform="translate(211 545)" fill="#6582fd" opacity="0.2"/>
    <text id="Play_store" data-name="Play store" transform="translate(254.73 573)" fill="#e4e7fa" font-size="13" font-family="Ubuntu"><tspan x="0" y="0">Play store</tspan></text>
    <g id="store" transform="translate(229 560)">
      <path id="Path_6544" data-name="Path 6544" d="M261.217,168.95l-2.791-1.612L254.6,170.2l3.824,2.858,2.8-1.618a1.451,1.451,0,0,0-.009-2.485Z" transform="translate(-247.349 -161.945)" fill="#ff9100"/>
      <path id="Path_6545" data-name="Path 6545" d="M37.82,20.6l-3.384,4.351-4.4,3.465a1.469,1.469,0,0,1-.435-1.044V13.8a1.469,1.469,0,0,1,.435-1.044l4.4,3.489Z" transform="translate(-29.601 -12.347)" fill="#25d9f8"/>
      <path id="Path_6546" data-name="Path 6546" d="M255.568,218.546l-.967,1.247V217.3Z" transform="translate(-247.349 -210.295)" fill="#00c0f1"/>
      <path id="Path_6547" data-name="Path 6547" d="M53.747,5.389,50.885,8.252,43.1.412a2.181,2.181,0,0,1,.3-.222,1.432,1.432,0,0,1,1.47.029l5.047,2.967Z" transform="translate(-42.666 0)" fill="#7fe881"/>
      <path id="Path_6548" data-name="Path 6548" d="M258.43,101l-2.862,2.862-.967-.967V98.8Z" transform="translate(-247.349 -95.616)" fill="#5bc980"/>
      <path id="Path_6549" data-name="Path 6549" d="M53.747,258.862l-3.829,2.2-5.057,2.952a1.473,1.473,0,0,1-.745.213,1.5,1.5,0,0,1-.716-.193,2.19,2.19,0,0,1-.3-.222L50.885,256Z" transform="translate(-42.666 -247.75)" fill="#ff637b"/>
      <path id="Path_6550" data-name="Path 6550" d="M258.43,258.862l-3.829,2.2v-4.1l.967-.967Z" transform="translate(-247.349 -247.75)" fill="#e63950"/>
    </g>
  </g>
</svg>
