<svg xmlns="http://www.w3.org/2000/svg" width="23.995" height="18.586" viewBox="0 0 23.995 18.586">
  <g id="Show" transform="translate(-160.6 -310.596)">
    <path id="Path_61131" data-name="Path 61131" d="M166.407,325.288c-.8-.617-1.566-1.176-2.3-1.778a19.972,19.972,0,0,1-2.975-3.076.81.81,0,0,1-.024-1.072,19.026,19.026,0,0,1,7.9-6.139,9.839,9.839,0,0,1,8.066.373.4.4,0,0,0,.554-.11c.729-.787,1.472-1.561,2.218-2.33a.761.761,0,0,1,1.315.354.807.807,0,0,1-.2.776c-.15.167-.309.326-.464.488Q173,320.638,165.487,328.5a1.3,1.3,0,0,1-.568.353.712.712,0,0,1-.8-.435.826.826,0,0,1,.153-.94q.959-1.016,1.929-2.02A1.9,1.9,0,0,1,166.407,325.288Zm1.151-1.255c.305-.322.6-.637.9-.946s.613-.626.912-.931a4.275,4.275,0,0,1,.384-5.042,3.771,3.771,0,0,1,2.132-1.242,3.7,3.7,0,0,1,2.818.551l1.418-1.485a8.867,8.867,0,0,0-3.24-.765,9.134,9.134,0,0,0-4.459,1.08,18.917,18.917,0,0,0-5.628,4.554.505.505,0,0,0-.05.1A20.06,20.06,0,0,0,167.558,324.033Zm5.989-6.357a2.28,2.28,0,0,0-2.628.525,2.445,2.445,0,0,0-.408,2.659Z" fill="#696f8e" stroke="#161629" stroke-width="0.6"/>
    <path id="Path_61132" data-name="Path 61132" d="M268.235,362.281c-.343-.369-.667-.749-1.023-1.092-.549-.529-1.116-1.038-1.684-1.544a.873.873,0,0,1-.346-.794.771.771,0,0,1,1.281-.518,21.057,21.057,0,0,1,3.367,3.416.8.8,0,0,1,.191.453,1.076,1.076,0,0,1-.17.612,19.208,19.208,0,0,1-7.6,6.027,9.766,9.766,0,0,1-5.585.653.824.824,0,0,1-.667-1.2.723.723,0,0,1,.813-.427,9.585,9.585,0,0,0,7.206-1.792,20.362,20.362,0,0,0,4.11-3.649C268.159,362.387,268.186,362.346,268.235,362.281Z" transform="translate(-85.726 -42.417)" fill="#696f8e" stroke="#161629" stroke-width="0.6"/>
  </g>
</svg>
