<svg xmlns="http://www.w3.org/2000/svg" width="42" height="44" viewBox="0 0 42 44">
    <defs>
        <clipPath id="fcgc21hzza">
            <path data-name="Rectangle 10755" style="fill:#696f8e" d="M0 0h42v44H0z"/>
        </clipPath>
    </defs>
    <g data-name="Group 71775" style="clip-path:url(#fcgc21hzza)">
        <g data-name="Group 71774">
            <g data-name="Group 71773" style="clip-path:url(#fcgc21hzza)">
                <path data-name="Path 62487" d="M29.75 31.81h-1.77l-.01 5.73H5.17V4.85h22.11V2.83H3.38l-.04 36.53h26.42c.01-.38.02-1.06.02-1.94z" style="fill:#696f8e"/>
                <path data-name="Path 62488" d="M35.68 10.17H18.7v13.49h4.25v3.16h1.06l5.07-3.14 6.66-.02c-.01-.69-.04-3.48-.06-13.49M34.1 22.04h-5.14c-.14.08-.85.47-4.26 2.53l-.3.18v-2.58h-4.1l.03-10.4h13.8z" style="fill:#696f8e"/>
                <path data-name="Rectangle 10753" transform="translate(15.496 30.581)" style="fill:#696f8e" d="M0 0h3v2H0z"/>
            </g>
        </g>
    </g>
</svg>
