<svg xmlns="http://www.w3.org/2000/svg" width="41.81" height="47.366" viewBox="0 0 41.81 47.366">
  <g id="My_Phone_Number" data-name="My Phone Number" transform="translate(-36.549 -785.945)">
    <g id="Group_42661" data-name="Group 42661" transform="translate(37 786.395)">
      <g id="Group_42660" data-name="Group 42660" transform="translate(0 0)">
        <path id="Path_8750" data-name="Path 8750" d="M61.74,3H31.047L31,49.466H64.824s.037-1.123.037-2.852l-.037-7.445H61.74l-.017,7.159H34.139V6.4h27.6Z" transform="translate(-30.996 -3)" fill="#838bb2" stroke="#1f1f35" stroke-width="0.9"/>
      </g>
    </g>
    <g id="Group_42668" data-name="Group 42668" transform="translate(56.343 795.753)">
      <g id="Group_42663" data-name="Group 42663" transform="translate(0 0)">
        <g id="Group_42662" data-name="Group 42662" transform="translate(0 0)">
          <path id="Path_8751" data-name="Path 8751" d="M225,129.194v17.331h5.311v3.941h1.645l6.324-3.92,8.485-.021s-.035-1.682-.073-17.331ZM244.233,144H238s-.2.056-5.38,3.187v-3.022H227.5l.04-12.479h16.728Z" transform="translate(-225 -129.194)" fill="#838bb2" stroke="#1f1f35" stroke-width="0.5"/>
        </g>
      </g>
    </g>
    <line id="Line_155" data-name="Line 155" x2="3.744" transform="translate(52.599 822.716)" fill="none" stroke="#838bb2" stroke-width="2"/>
  </g>
</svg>
