<svg xmlns="http://www.w3.org/2000/svg" width="42" height="44" viewBox="0 0 42 44">
  <g id="SMS_Authentication" data-name="SMS Authentication" transform="translate(-42 -452)">
    <rect id="Rectangle_7264" data-name="Rectangle 7264" width="42" height="44" transform="translate(42 452)" fill="#fff" opacity="0"/>
    <g id="My_Phone_Number" data-name="My Phone Number" transform="translate(8 -331.919)">
      <g id="Group_42661" data-name="Group 42661" transform="translate(38.004 783.395)">
        <g id="Group_42660" data-name="Group 42660" transform="translate(0)">
          <path id="Path_8750" data-name="Path 8750" d="M55.632,3H31.037L31,40.234H58.1s.029-.9.029-2.285L58.1,31.983H55.632l-.014,5.736h-22.1v-32H55.632Z" transform="translate(-32)" fill="#696f8e" stroke="#1f1f35" stroke-width="0.7"/>
        </g>
      </g>
      <g id="Group_42668" data-name="Group 42668" transform="translate(5.469 786.332)">
        <g id="Group_42663" data-name="Group 42663" transform="translate(47.031 7.562)">
          <g id="Group_42662" data-name="Group 42662" transform="translate(0 0)">
            <path id="Path_8751" data-name="Path 8751" d="M225,129.194v13.888h4.256v3.158h1.319l5.068-3.141,6.8-.017s-.028-1.348-.058-13.888Zm15.412,11.865h-4.991s-.163.045-4.311,2.554v-2.422H227l.032-10h13.4Z" transform="translate(-225 -129.194)" fill="#696f8e" stroke="#1f1f35" stroke-width="0.4"/>
          </g>
        </g>
      </g>
      <line id="Line_155" data-name="Line 155" x2="3" transform="translate(49.5 815.5)" fill="none" stroke="#696f8e" stroke-width="2"/>
    </g>
  </g>
</svg>
