<svg id="SMS" xmlns="http://www.w3.org/2000/svg" xmlns:xlink="http://www.w3.org/1999/xlink" width="36.14" height="40.83" viewBox="0 0 36.14 40.83">
  <defs>
    <clipPath id="clip-path">
      <rect id="Rectangle_10714" data-name="Rectangle 10714" width="36.14" height="40.83" fill="#c0c5e0"/>
    </clipPath>
  </defs>
  <g id="Group_71725" data-name="Group 71725" clip-path="url(#clip-path)">
    <path id="Path_62461" data-name="Path 62461" d="M29.48,38.76c0,.91-.01,1.62-.02,2.07H0L.04,0H26.67V2.06H2.33a.5.5,0,0,0-.5.5V38.5a.5.5,0,0,0,.5.5H27.15a.5.5,0,0,0,.5-.5l.02-5.94h1.78Z" fill="#c0c5e0"/>
    <path id="Path_62462" data-name="Path 62462" d="M36.08,8.28H17.26v14.9h4.78v3.54h1.03l5.69-3.52,7.38-.02c-.01-.96-.03-4.29-.06-14.9M34.57,21.6H28.68c-.13.08-.93.52-4.73,2.82l-.54.32V21.75H18.8l.04-11.93H34.59Z" fill="#c0c5e0"/>
    <rect id="Rectangle_10713" data-name="Rectangle 10713" width="6.852" height="2" transform="translate(11.732 31.013)" fill="#c0c5e0"/>
  </g>
</svg>
