<svg xmlns="http://www.w3.org/2000/svg" width="42" height="44" viewBox="0 0 42 44">
  <g id="Set_a_Strong_Password" data-name="Set a Strong Password" transform="translate(-42 -750)">
    <rect id="Rectangle_7267" data-name="Rectangle 7267" width="42" height="44" transform="translate(42 750)" fill="#fff" opacity="0"/>
    <path id="Set_a_Strong_Password-2" data-name="Set a Strong Password" d="M22047.43,15175.965H22017V15151.4h5.594v-1.191c0-.1,0-.173,0-.241,0-.265,0-.411,0-1.251a9.575,9.575,0,0,1,7.664-9.506,9.119,9.119,0,0,1,1.932-.208,9.681,9.681,0,0,1,8.91,6.083l-2.2.946a7.191,7.191,0,0,0-6.492-4.613l-.076,0h-.027l-.057,0a7.183,7.183,0,0,0-7.254,7.266c0,.852,0,1.009,0,1.3v1.05q0,.085.006.167l0,.048a.4.4,0,0,0,0,.048c0,.032,0,.064,0,.1H22039l0,.006h2.514l-.105-3.873-.043-1.64a9.045,9.045,0,0,1,.236,1.081,17.508,17.508,0,0,1,.145,2.327l0,.01c0,.088,0,.176,0,.264l.006.266c.014.687.014.689.012.819l0,.015c0,.1,0,.26,0,.742h5.594l.072,24.566Zm-28-22.154h0v19.726h25.514v-19.726Zm25.574,6.164h0v10h2.34v-10Zm-11.078,8h-3.48v-3.613h3.48v3.612Z" transform="translate(-21970.5 -14385.951)" fill="#696f8e" stroke="#1f1f35" stroke-width="0.5"/>
  </g>
</svg>
