<svg xmlns="http://www.w3.org/2000/svg" width="54.119" height="48" viewBox="0 0 54.119 48">
  <g id="TOTP_App_Authentication" data-name="TOTP App Authentication" transform="translate(-141.65 -300.65)">
    <g id="Strong_Security" data-name="Strong Security" transform="translate(141.65 300.65)">
      <g id="_117447" data-name="117447" transform="translate(0 0)">
        <path id="Subtraction_79" data-name="Subtraction 79" d="M21.96,48h0a18.545,18.545,0,0,1-3.046-1.247,27.815,27.815,0,0,1-7.39-5.556A36.653,36.653,0,0,1,3.91,29.007,62.745,62.745,0,0,1,.014,7.665l-.008-.2V7.445C0,7.328,0,7.217,0,7.12H.006l.446,0c.2,0,.406,0,.629,0,2.974,0,8.415-.18,11.487-1.392A28.143,28.143,0,0,0,21.05,0h1.826a27.439,27.439,0,0,0,9.409,6.113C33.36,6.5,36.108,7.14,42.434,7.14c.527,0,1.029-.01,1.358-.014L44.1,7.12v.147c0,.048,0,.1,0,.145l0,.008c0,.085,0,.167,0,.244-.063,2.217-.2,4.384-.42,6.436l-2.58.147c.141-1.285.252-2.607.325-3.934l.056-.97-.97.075-.123.01c-.514.044-1.108.069-1.715.069A23.3,23.3,0,0,1,22.545,3.1l-.585-.557-.587.557A24.611,24.611,0,0,1,4.739,9.466c-.527,0-.962-.016-1.336-.048l-.96-.081.044.966A55,55,0,0,0,5.931,27.725a36.465,36.465,0,0,0,6.361,10.742,25.01,25.01,0,0,0,9.369,7.072l.28.111.286-.1.063-.024a20.12,20.12,0,0,0,5.122-2.907,30.546,30.546,0,0,0,8.34-9.985l2.822-.073a36.142,36.142,0,0,1-4.929,7.39,30.394,30.394,0,0,1-5.709,5.092A22.253,22.253,0,0,1,21.96,48Z" fill="#838bb2"/>
      </g>
    </g>
    <g id="Group_51646" data-name="Group 51646" transform="translate(164.352 319.43)">
      <path id="Union_28" data-name="Union 28" d="M0,11.14V0H2.357V4.392H20.735V6.748H2.357V11.14Z" transform="translate(0 0.321)" fill="#838bb2"/>
      <circle id="Ellipse_345" data-name="Ellipse 345" cx="5.892" cy="5.892" r="5.892" transform="translate(18.325)" fill="none"/>
      <g id="Ellipse_1736" data-name="Ellipse 1736" transform="translate(19.634)" fill="none" stroke="#838bb2" stroke-width="1.9">
        <circle cx="5.892" cy="5.892" r="5.892" stroke="none"/>
        <circle cx="5.892" cy="5.892" r="4.942" fill="none"/>
      </g>
    </g>
  </g>
</svg>
