<svg xmlns="http://www.w3.org/2000/svg" width="42" height="44" viewBox="0 0 42 44">
  <g id="TOTP_Authentication" data-name="TOTP Authentication" transform="translate(-42 -293)">
    <rect id="Rectangle_7262" data-name="Rectangle 7262" width="42" height="44" transform="translate(42 293)" fill="#fff" opacity="0"/>
    <g id="TOTP_App_Authentication" data-name="TOTP App Authentication" transform="translate(-99.65 -5)">
      <g id="Strong_Security" data-name="Strong Security" transform="translate(141 300)">
        <g id="_117447" data-name="117447" transform="translate(0 0)">
          <path id="Subtraction_79" data-name="Subtraction 79" d="M18573.08,14884.977h0a14.147,14.147,0,0,1-2.328-.952,21.258,21.258,0,0,1-5.646-4.245,28.013,28.013,0,0,1-5.818-9.313,47.976,47.976,0,0,1-2.977-16.307l-.006-.15v-.018c0-.089,0-.174,0-.248h0l.342,0q.223,0,.48,0c2.271,0,6.43-.138,8.777-1.063a21.527,21.527,0,0,0,6.48-4.381h1.395a20.986,20.986,0,0,0,7.189,4.67c.822.293,2.922.784,7.756.784.4,0,.785-.007,1.037-.011l.236,0v.112c0,.037,0,.074,0,.11l0,.007c0,.065,0,.128,0,.187-.047,1.694-.154,3.35-.32,4.917l-1.971.112c.107-.981.191-1.991.248-3l.043-.741-.742.056-.094.009c-.393.034-.846.052-1.311.052a17.8,17.8,0,0,1-12.318-4.885l-.447-.425-.449.425a18.8,18.8,0,0,1-12.709,4.861c-.4,0-.736-.012-1.021-.037l-.732-.061.033.737a42.038,42.038,0,0,0,2.631,13.312,27.85,27.85,0,0,0,4.861,8.207,19.11,19.11,0,0,0,7.158,5.4l.215.084.219-.075.047-.019a15.353,15.353,0,0,0,3.914-2.221,23.366,23.366,0,0,0,6.373-7.629l2.156-.056a27.6,27.6,0,0,1-3.766,5.646,23.2,23.2,0,0,1-4.363,3.892,17,17,0,0,1-4.566,2.258Z" transform="translate(-18555.65 -14847.653)" fill="#696f8e"/>
        </g>
      </g>
      <g id="Group_51646" data-name="Group 51646" transform="translate(159.702 315)">
        <path id="Union_28" data-name="Union 28" d="M20832.295,6664.506V6656h1.8v3.354h14.037v1.8H20834.1v3.354Z" transform="translate(-20832.996 -6655.753)" fill="#696f8e"/>
        <circle id="Ellipse_345" data-name="Ellipse 345" cx="4.5" cy="4.5" r="4.5" transform="translate(13.297)" fill="none"/>
        <path id="Ellipse_1736" data-name="Ellipse 1736" d="M4.5,1.6A2.9,2.9,0,1,0,7.4,4.5,2.9,2.9,0,0,0,4.5,1.6M4.5,0A4.5,4.5,0,1,1,0,4.5,4.5,4.5,0,0,1,4.5,0Z" transform="translate(14.297)" fill="#696f8e"/>
      </g>
    </g>
  </g>
</svg>
