<svg xmlns="http://www.w3.org/2000/svg" xmlns:xlink="http://www.w3.org/1999/xlink" width="17.18" height="19.32" viewBox="0 0 17.18 19.32">
  <defs>
    <clipPath id="clip-path">
      <rect id="Rectangle_10701" data-name="Rectangle 10701" width="17.18" height="19.32" transform="translate(0 0)" fill="none"/>
    </clipPath>
  </defs>
  <g id="exchange" transform="translate(0 0)">
    <g id="Group_71706" data-name="Group 71706" clip-path="url(#clip-path)">
      <path id="Path_62426" data-name="Path 62426" d="M16.68,11.82a1.386,1.386,0,0,0-.4-.06H0v1.59H14.54l-2.23,2.3-1.1,1.14c-.46.48-1.4,1.45-1.4,1.45l-.07.07,1.2,1.01.06-.06c.02-.03,2.31-2.38,3.45-3.56l.66-.68c.59-.61,1.21-1.24,1.81-1.87a.881.881,0,0,0,.23-.79.734.734,0,0,0-.47-.54m.41-5.77c-.11-.02-.23-.03-.34-.04H2.69L7.37,1.18l.07-.07L6.32,0,6.25.08C6.22.12,2.27,4.19.32,6.22a.875.875,0,0,0-.22.32.754.754,0,0,0,.08.7.854.854,0,0,0,.7.37h16.3V6.06Z" fill="#c0c5e0"/>
    </g>
  </g>
</svg>
