<svg xmlns="http://www.w3.org/2000/svg" width="17.18" height="19.323" viewBox="0 0 17.18 19.323">
  <g id="Exchange" transform="translate(-652.641 -332.675)">
    <path id="Union_1" data-name="Union 1" d="M9.786,18.163l1.4-1.448q1.66-1.716,3.322-3.433l.158-.172H14.4c-5.245,0-8.769,0-14.014,0H0V11.72H.372c5.843,0,9.965,0,15.807,0a1.048,1.048,0,0,1,.366.053.693.693,0,0,1,.2,1.163q-1.231,1.283-2.47,2.556c-1.146,1.185-3.444,3.551-3.444,3.551Zm6.874-10.8H12.283c-3.795,0-7.158,0-11.445.006a.71.71,0,0,1-.749-.934.916.916,0,0,1,.195-.295C2.26,4.09,6.218,0,6.218,0L7.2.971,2.513,5.808c-.042.043-.08.089-.148.164h.252c5.25,0,8.78,0,14.029,0a2.961,2.961,0,0,1,.331.035V7.366S16.747,7.361,16.66,7.361Z" transform="translate(652.741 332.818)" fill="#c0c5e0" stroke="#c0c5e0" stroke-width="0.2"/>
  </g>
</svg>
