<svg xmlns="http://www.w3.org/2000/svg" width="16.609" height="18.112" viewBox="0 0 16.609 18.112">
  <g id="Transactions" transform="translate(-179.779 -769.277)">
    <path id="Path_61049" data-name="Path 61049" d="M-446.582,382.531c0,2.929.029,4.741.029,7.67,0,.076,0,.151,0,.227a.756.756,0,0,1-1.18.56c-.867-.437-1.726-.886-2.588-1.33-.189-.1-.385-.186-.565-.3a.338.338,0,0,0-.379,0c-1.018.53-2.044,1.048-3.06,1.581a1.028,1.028,0,0,1-1.038,0c-1.008-.53-2.027-1.043-3.036-1.571a.4.4,0,0,0-.424,0q-1.526.8-3.063,1.577c-.654.334-1.245.051-1.245-.6,0-5.964-.029-17.369-.029-17.369h16.578S-446.582,379.557-446.582,382.531Zm-15.053-8.009.029,14.782c.838-.431,1.653-.838,2.452-1.266a1.055,1.055,0,0,1,1.083,0c1,.528,2.012,1.035,3.015,1.558a.4.4,0,0,0,.427,0c1.009-.528,2.031-1.039,3.038-1.57a1.018,1.018,0,0,1,1.036,0c.743.394,1.5.773,2.246,1.157.072.037.148.069.229.107l-.029-14.767Z" transform="translate(642.94 396.288)" fill="#6582fd"/>
    <path id="Path_61047" data-name="Path 61047" d="M0,0H7.456V1.581H0Z" transform="translate(184.65 774.705)" fill="#6582fd"/>
    <path id="Path_61050" data-name="Path 61050" d="M0,0H3.723V1.581H0Z" transform="translate(184.655 778.088)" fill="#6582fd"/>
  </g>
</svg>
