<svg xmlns="http://www.w3.org/2000/svg" width="17.892" height="18.009" viewBox="0 0 17.892 18.009">
  <path id="Wallet" d="M6172.632,5092.523a2.673,2.673,0,0,1,2.539-2.916c4.333-.006,9.042,0,13.375,0h-.123v1.552l2.1,2.667-2.1-2.667-1.658.013c-3.62,0-7.794-.031-11.416-.031-.067,0-.134,0-.2,0-.963.014-1.4,2.176.031,2.683,2.239,0,4.726,0,7.159,0h4.5c.058,0,3.626,0,3.684,0l-.043,13.75c-5.25,0-17.846.037-17.846.037S6172.627,5096.918,6172.632,5092.523Zm1.445,2.779v10.826s10.207-.006,14.786-.006h.2s-.042-8.02.026-10.819h-.266c-4.535,0-9.109.009-13.644,0a2.9,2.9,0,0,1-1.1-.259Zm16.4,12.274h.043l-.043,0Zm-6.786-5.685v-1.841h2.694v1.841Z" transform="translate(-6172.63 -5089.604)" fill="#c0c5e0"/>
</svg>
